<svg fill="#000000" xmlns="http://www.w3.org/2000/svg"  viewBox="0 0 50 50" width="50px" height="50px"><path d="M 28 39 C 27.847656 39 27.695313 38.964844 27.558594 38.894531 C 27.214844 38.726563 27 38.382813 27 38 L 27 30 L 5 30 C 4.449219 30 4 29.554688 4 29 L 4 21 C 4 20.449219 4.449219 20 5 20 L 27 20 L 27 12 C 27 11.621094 27.214844 11.273438 27.558594 11.105469 C 27.898438 10.9375 28.304688 10.976563 28.609375 11.207031 L 45.609375 24.207031 C 45.855469 24.394531 46 24.6875 46 25 C 46 25.3125 45.855469 25.605469 45.605469 25.792969 L 28.605469 38.792969 C 28.429688 38.929688 28.214844 39 28 39 Z"/></svg>