<svg fill="#000000" xmlns="http://www.w3.org/2000/svg"  viewBox="0 0 50 50" width="50px" height="50px"><path d="M 7 9 C 4.243 9 2 11.243 2 14 L 2 36 C 2 38.757 4.243 41 7 41 L 36.414062 41 L 40 41 C 39.252 40.571 38.449828 39.884 37.798828 39 L 7 39 C 5.346 39 4 37.654 4 36 L 4 14 C 4 12.346 5.346 11 7 11 L 43 11 C 44.654 11 46 12.346 46 14 L 46 26 L 48 26 L 48 14 C 48 11.243 45.757 9 43 9 L 7 9 z M 10 16 C 8.9069372 16 8 16.906937 8 18 L 8 21 C 8 22.093063 8.9069372 23 10 23 L 14 23 C 15.093063 23 16 22.093063 16 21 L 16 18 C 16 16.906937 15.093063 16 14 16 L 10 16 z M 10 18 L 14 18 L 14 21 L 10 21 L 10 18 z M 28 18 A 1.0001 1.0001 0 1 0 28 20 L 41 20 A 1.0001 1.0001 0 1 0 41 18 L 28 18 z M 9 28 A 1.0001 1.0001 0 1 0 9 30 L 14 30 A 1.0001 1.0001 0 1 0 14 28 L 9 28 z M 18 28 A 1.0001 1.0001 0 1 0 18 30 L 23 30 A 1.0001 1.0001 0 1 0 23 28 L 18 28 z M 27 28 A 1.0001 1.0001 0 1 0 27 30 L 32 30 A 1.0001 1.0001 0 1 0 32 28 L 27 28 z M 36 28 C 35.448 28 35 28.447 35 29 C 35 29.553 35.448 30 36 30 L 38.839844 30 C 39.511844 29.421 40.257 28.976687 41 28.679688 L 41 28 L 36 28 z M 43 28 L 43 30.199219 C 41.4 30.399219 38.5 31.799219 38.5 35.199219 C 38.5 41.599219 47.800781 38.299609 47.800781 43.099609 C 47.800781 44.699609 47.1 46 44 46 C 40.9 46 40 44.3 40 43 L 38 43 C 38.3 47.3 41.3 47.799609 43 48.099609 L 43 50 L 45 50 L 45 48.099609 C 46.5 47.999609 50 46.900391 50 42.900391 C 50 39.600391 47.299219 38.699609 44.699219 38.099609 C 42.599219 37.599609 40.699219 37.1 40.699219 35 C 40.699219 34.1 41.099609 32.099609 44.099609 32.099609 C 46.199609 32.099609 47.2 33.4 47.5 35 L 49.5 35 C 48.9 32.8 47.9 30.800781 45 30.300781 L 45 28 L 43 28 z M 9 33 A 1.0001 1.0001 0 1 0 9 35 L 22 35 A 1.0001 1.0001 0 1 0 22 33 L 9 33 z"/></svg>