<svg fill="#000000" xmlns="http://www.w3.org/2000/svg"  viewBox="0 0 50 50" width="50px" height="50px"><path d="M 4.8125 9 C 4.335938 9.089844 3.992188 9.511719 4 10 C 4 11.65625 2.65625 13 1 13 C 0.449219 13 0 13.449219 0 14 L 0 36 C 0 36.550781 0.449219 37 1 37 C 2.65625 37 4 38.34375 4 40 C 4 40.550781 4.449219 41 5 41 L 45 41 C 45.550781 41 46 40.550781 46 40 C 46 38.34375 47.34375 37 49 37 C 49.550781 37 50 36.550781 50 36 L 50 14 C 50 13.449219 49.550781 13 49 13 C 47.34375 13 46 11.65625 46 10 C 46 9.449219 45.550781 9 45 9 L 5 9 C 4.96875 9 4.9375 9 4.90625 9 C 4.875 9 4.84375 9 4.8125 9 Z M 5.78125 11 L 44.21875 11 C 44.628906 12.917969 46.082031 14.371094 48 14.78125 L 48 35.21875 C 46.082031 35.628906 44.628906 37.082031 44.21875 39 L 5.78125 39 C 5.371094 37.082031 3.917969 35.628906 2 35.21875 L 2 14.78125 C 3.917969 14.371094 5.371094 12.917969 5.78125 11 Z M 10 20 L 10 22 L 40 22 L 40 20 Z M 10 28 L 10 30 L 40 30 L 40 28 Z"/></svg>