<svg fill="#000000" xmlns="http://www.w3.org/2000/svg"  viewBox="0 0 50 50" width="50px" height="50px"><path d="M 29.984375 5.984375 C 29.9375 5.988281 29.886719 5.992188 29.839844 6 L 5 6 C 3.355469 6 2 7.355469 2 9 L 2 41 C 2 42.644531 3.355469 44 5 44 L 29.832031 44 C 29.941406 44.019531 30.050781 44.019531 30.15625 44 L 45 44 C 46.644531 44 48 42.644531 48 41 L 48 9 C 48 7.355469 46.644531 6 45 6 L 30.15625 6 C 30.097656 5.992188 30.042969 5.984375 29.984375 5.984375 Z M 5 8 L 29 8 L 29 42 L 5 42 C 4.433594 42 4 41.566406 4 41 L 4 9 C 4 8.433594 4.433594 8 5 8 Z M 31 8 L 45 8 C 45.566406 8 46 8.433594 46 9 L 46 41 C 46 41.566406 45.566406 42 45 42 L 31 42 Z M 18.996094 18.988281 C 18.589844 18.988281 18.222656 19.234375 18.066406 19.609375 C 17.910156 19.984375 18 20.417969 18.289063 20.703125 L 21.546875 24 L 9 24 C 8.640625 23.996094 8.304688 24.183594 8.121094 24.496094 C 7.941406 24.808594 7.941406 25.191406 8.121094 25.503906 C 8.304688 25.816406 8.640625 26.003906 9 26 L 21.546875 26 L 18.289063 29.296875 C 18.03125 29.550781 17.925781 29.921875 18.019531 30.273438 C 18.113281 30.621094 18.386719 30.894531 18.738281 30.984375 C 19.089844 31.074219 19.460938 30.964844 19.710938 30.703125 L 25.347656 25 L 19.710938 19.296875 C 19.523438 19.101563 19.265625 18.992188 18.996094 18.988281 Z"/></svg>