<svg fill="#000000" xmlns="http://www.w3.org/2000/svg"  viewBox="0 0 50 50" width="50px" height="50px"><path d="M 28.992188 9 C 23.926188 9 19.629328 11.6725 17.486328 16.0625 C 16.386328 15.3705 15.061625 15 13.640625 15 C 10.003625 15 7.2249531 17.766719 7.0019531 21.511719 C 2.5409531 23.020719 -5.9211895e-16 26.561078 0 31.330078 C 0 36.661078 4.3379219 41 9.6699219 41 L 16.320312 41 L 14.339844 39 L 9.6699219 39 C 5.4409219 39 2 35.559078 2 31.330078 C 2 25.774078 5.925625 23.860844 8.265625 23.214844 L 9.0273438 23.005859 L 8.9863281 22 C 8.9863281 19.149 10.987625 17 13.640625 17 C 15.048625 17 16.306594 17.483328 17.183594 18.361328 L 18.287109 19.466797 L 18.830078 18.001953 C 20.428078 13.683953 24.322187 11 28.992188 11 C 35.164187 11 40 15.832 40 22 C 40 22.415 39.970297 22.853859 39.904297 23.380859 L 39.822266 24.501953 L 40.953125 24.501953 C 44.640125 24.501953 47.998047 28.122609 47.998047 32.099609 C 47.999047 35.904609 44.903656 39 41.097656 39 L 35.660156 39 L 33.679688 41 L 41.097656 41 C 46.006656 41 50 37.007609 50 32.099609 C 50 27.370609 46.384375 23.179125 41.984375 22.578125 C 41.994375 22.380125 42 22.188 42 22 C 42 14.71 36.286187 9 28.992188 9 z M 25 31.025391 C 20.95 31.025391 16.900781 32.549609 13.800781 35.599609 L 15.199219 37 C 20.599219 31.6 29.400781 31.6 34.800781 37 L 36.199219 35.599609 C 33.099219 32.549609 29.05 31.025391 25 31.025391 z M 24.962891 35.974609 C 22.175391 35.974609 19.400781 37.049219 17.300781 39.199219 L 18.699219 40.599609 C 22.199219 37.099609 27.800781 37.099609 31.300781 40.599609 L 32.699219 39.199219 C 30.549219 37.049219 27.750391 35.974609 24.962891 35.974609 z M 25 40.974609 C 23.475 40.974609 21.950781 41.549219 20.800781 42.699219 L 22.199219 44.099609 C 23.699219 42.599609 26.200781 42.599609 27.800781 44.099609 L 29.199219 42.699219 C 28.049219 41.549219 26.525 40.974609 25 40.974609 z M 25 46 C 23.9 46 23 46.9 23 48 C 23 49.1 23.9 50 25 50 C 26.1 50 27 49.1 27 48 C 27 46.9 26.1 46 25 46 z"/></svg>