<svg fill="#000000" xmlns="http://www.w3.org/2000/svg"  viewBox="0 0 50 50" width="50px" height="50px"><path d="M 25 2 C 12.309534 2 2 12.309534 2 25 C 2 37.690466 12.309534 48 25 48 C 37.690466 48 48 37.690466 48 25 C 48 12.309534 37.690466 2 25 2 z M 25 4 C 36.609534 4 46 13.390466 46 25 C 46 36.609534 36.609534 46 25 46 C 13.390466 46 4 36.609534 4 25 C 4 13.390466 13.390466 4 25 4 z M 25 11 C 20.041484 11 16 15.041484 16 20 L 16 30 C 16 34.958516 20.041484 39 25 39 C 29.958516 39 34 34.958516 34 30 L 32 30 C 32 33.877484 28.877484 37 25 37 C 21.122516 37 18 33.877484 18 30 L 18 20 C 18 16.122516 21.122516 13 25 13 C 28.877484 13 32 16.122516 32 20 L 34 20 C 34 15.041484 29.958516 11 25 11 z"/></svg>