<svg fill="#000000" xmlns="http://www.w3.org/2000/svg"  viewBox="0 0 50 50" width="50px" height="50px"><path d="M 10 2 L 10 10 L 13 10 L 13 44 L 26 44 L 26 47 L 34 47 L 34 39 L 26 39 L 26 42 L 15 42 L 15 33 L 26 33 L 26 36 L 34 36 L 34 28 L 26 28 L 26 31 L 15 31 L 15 21 L 22.949219 21 C 24.425781 23.957031 27.476563 26 31 26 C 35.964844 26 40 21.960938 40 17 C 40 12.039063 35.964844 8 31 8 C 26.035156 8 22 12.039063 22 17 C 22 17.6875 22.085938 18.355469 22.234375 19 L 15 19 L 15 10 L 18 10 L 18 2 Z M 12 4 L 16 4 L 16 8 L 12 8 Z M 28 13 C 28.253906 13 28.511719 13.097656 28.707031 13.292969 L 31 15.585938 L 33.292969 13.292969 C 33.683594 12.902344 34.316406 12.902344 34.707031 13.292969 C 35.097656 13.683594 35.097656 14.316406 34.707031 14.707031 L 32.414063 17 L 34.707031 19.292969 C 35.097656 19.683594 35.097656 20.316406 34.707031 20.707031 C 34.511719 20.902344 34.257813 21 34 21 C 33.742188 21 33.488281 20.902344 33.292969 20.707031 L 31 18.414063 L 28.707031 20.707031 C 28.511719 20.902344 28.257813 21 28 21 C 27.742188 21 27.488281 20.902344 27.292969 20.707031 C 26.902344 20.316406 26.902344 19.683594 27.292969 19.292969 L 29.585938 17 L 27.292969 14.707031 C 26.902344 14.316406 26.902344 13.683594 27.292969 13.292969 C 27.488281 13.097656 27.746094 13 28 13 Z M 28 30 L 32 30 L 32 34 L 28 34 Z M 28 41 L 32 41 L 32 45 L 28 45 Z"/></svg>