<svg fill="#000000" xmlns="http://www.w3.org/2000/svg"  viewBox="0 0 50 50" width="50px" height="50px"><path d="M 10 2 L 10 10 L 13 10 L 13 44 L 26 44 L 26 47 L 34 47 L 34 39 L 26 39 L 26 42 L 15 42 L 15 33 L 26 33 L 26 36 L 34 36 L 34 28 L 26 28 L 26 31 L 15 31 L 15 21 L 22.953125 21 C 24.429688 23.957031 27.480469 26 31 26 C 35.957031 26 40 21.957031 40 17 C 40 12.042969 35.957031 8 31 8 C 26.042969 8 22 12.042969 22 17 C 22 17.6875 22.085938 18.355469 22.234375 19 L 15 19 L 15 10 L 18 10 L 18 2 Z M 12 4 L 16 4 L 16 8 L 12 8 Z M 31 10 C 34.878906 10 38 13.121094 38 17 C 38 20.878906 34.878906 24 31 24 C 27.121094 24 24 20.878906 24 17 C 24 13.121094 27.121094 10 31 10 Z M 27.988281 12.988281 C 27.582031 12.992188 27.21875 13.238281 27.0625 13.613281 C 26.910156 13.992188 27 14.421875 27.292969 14.707031 L 29.585938 17 L 27.292969 19.292969 C 27.03125 19.542969 26.925781 19.917969 27.019531 20.265625 C 27.109375 20.617188 27.382813 20.890625 27.734375 20.980469 C 28.082031 21.074219 28.457031 20.96875 28.707031 20.707031 L 31 18.414063 L 33.292969 20.707031 C 33.542969 20.96875 33.917969 21.074219 34.265625 20.980469 C 34.617188 20.890625 34.890625 20.617188 34.980469 20.265625 C 35.074219 19.917969 34.96875 19.542969 34.707031 19.292969 L 32.414063 17 L 34.707031 14.707031 C 35.003906 14.417969 35.089844 13.980469 34.929688 13.601563 C 34.769531 13.21875 34.394531 12.976563 33.980469 12.988281 C 33.71875 12.996094 33.472656 13.105469 33.292969 13.292969 L 31 15.585938 L 28.707031 13.292969 C 28.519531 13.097656 28.261719 12.992188 27.988281 12.988281 Z M 28 30 L 32 30 L 32 34 L 28 34 Z M 28 41 L 32 41 L 32 45 L 28 45 Z"/></svg>