<svg fill="#000000" xmlns="http://www.w3.org/2000/svg"  viewBox="0 0 50 50" width="50px" height="50px"><path d="M 17.966797 0.99023438 A 1.0001 1.0001 0 0 0 17.242188 2.6523438 L 28.789062 16.091797 L 28.791016 16.09375 C 30.28744 17.814393 31.008097 19.935407 30.998047 22.042969 L 24.380859 14.347656 A 1.0001 1.0001 0 0 0 23.583984 14 A 1.0001 1.0001 0 0 0 22.972656 14.240234 L 14.349609 21.625 A 1.0001 1.0001 0 0 0 14.236328 23.03125 L 20.919922 30.927734 C 18.785472 30.671338 16.738947 29.663271 15.212891 27.910156 C 15.211591 27.908756 15.210184 27.90765 15.208984 27.90625 L 3.7636719 14.355469 A 1.0001 1.0001 0 1 0 2.2363281 15.644531 L 13.695312 29.212891 L 13.699219 29.21875 C 14.912465 30.614233 16.409005 31.616709 18.025391 32.242188 C 18.013 32.493817 18 32.745254 18 33 C 18 41.272438 24.727562 48 33 48 C 41.272438 48 48 41.272438 48 33 C 48 28.379035 45.898594 24.243757 42.603516 21.490234 L 43.722656 19.875 C 44.080573 19.357858 44.300982 18.758427 44.355469 18.136719 L 44.986328 10.878906 C 45.074452 9.8689829 44.714009 8.8681925 44.019531 8.1171875 L 37.734375 1.3203125 A 1.0001 1.0001 0 0 0 37.029297 0.99023438 A 1.0001 1.0001 0 0 0 36.265625 2.6796875 L 42.550781 9.4765625 C 42.888304 9.8415575 43.032017 10.271002 42.994141 10.705078 L 42.363281 17.962891 C 42.339771 18.231182 42.246208 18.49347 42.078125 18.736328 L 40.980469 20.320312 C 38.666057 18.858432 35.934608 18 33 18 C 32.745913 18 32.498986 18.026732 32.248047 18.039062 C 31.802069 16.880944 31.163964 15.776444 30.304688 14.787109 L 30.302734 14.785156 L 18.757812 1.3476562 A 1.0001 1.0001 0 0 0 17.966797 0.99023438 z M 23.515625 16.408203 L 30.597656 24.646484 C 30.120008 26.198348 29.225651 27.64382 27.90625 28.791016 C 26.603277 29.924066 25.074042 30.609458 23.492188 30.873047 L 16.40625 22.498047 L 23.515625 16.408203 z M 33 20 C 40.191562 20 46 25.808438 46 33 C 46 40.191562 40.191562 46 33 46 C 25.808438 46 20 40.191562 20 33 C 20 32.935059 20.006812 32.871396 20.007812 32.806641 C 20.666914 32.927796 21.334796 33 22.003906 33 C 24.562392 33 27.139595 32.106837 29.21875 30.298828 C 32.254381 27.659402 33.477055 23.707699 32.802734 20.009766 C 32.869133 20.008742 32.933317 20 33 20 z"/></svg>