<svg fill="#000000" xmlns="http://www.w3.org/2000/svg"  viewBox="0 0 50 50" width="50px" height="50px"><path d="M 27.980469 3.992188 C 27.71875 3.996094 27.472656 4.105469 27.292969 4.292969 L 6.585938 25 L 27.292969 45.707031 C 27.542969 45.96875 27.917969 46.074219 28.265625 45.980469 C 28.617188 45.890625 28.890625 45.617188 28.980469 45.265625 C 29.074219 44.917969 28.96875 44.542969 28.707031 44.292969 L 9.414063 25 L 28.707031 5.707031 C 29.003906 5.417969 29.089844 4.980469 28.929688 4.601563 C 28.769531 4.21875 28.394531 3.976563 27.980469 3.992188 Z M 40.980469 3.992188 C 40.71875 3.996094 40.472656 4.105469 40.292969 4.292969 L 19.585938 25 L 40.292969 45.707031 C 40.542969 45.96875 40.917969 46.074219 41.265625 45.980469 C 41.617188 45.890625 41.890625 45.617188 41.980469 45.265625 C 42.074219 44.917969 41.96875 44.542969 41.707031 44.292969 L 22.414063 25 L 41.707031 5.707031 C 42.003906 5.417969 42.089844 4.980469 41.929688 4.601563 C 41.769531 4.21875 41.394531 3.976563 40.980469 3.992188 Z"/></svg>