<svg fill="#000000" xmlns="http://www.w3.org/2000/svg"  viewBox="0 0 50 50" width="50px" height="50px"><path d="M 8.992188 3.992188 C 8.582031 3.992188 8.21875 4.238281 8.0625 4.613281 C 7.910156 4.992188 8 5.421875 8.292969 5.707031 L 27.585938 25 L 8.292969 44.292969 C 8.03125 44.542969 7.925781 44.917969 8.019531 45.265625 C 8.109375 45.617188 8.382813 45.890625 8.734375 45.980469 C 9.082031 46.074219 9.457031 45.96875 9.707031 45.707031 L 30.414063 25 L 9.707031 4.292969 C 9.519531 4.097656 9.261719 3.992188 8.992188 3.992188 Z M 21.988281 3.992188 C 21.582031 3.992188 21.21875 4.238281 21.0625 4.613281 C 20.910156 4.992188 21 5.421875 21.292969 5.707031 L 40.585938 25 L 21.292969 44.292969 C 21.03125 44.542969 20.925781 44.917969 21.019531 45.265625 C 21.109375 45.617188 21.382813 45.890625 21.734375 45.980469 C 22.082031 46.074219 22.457031 45.96875 22.707031 45.707031 L 43.414063 25 L 22.707031 4.292969 C 22.519531 4.097656 22.261719 3.992188 21.988281 3.992188 Z"/></svg>