<svg fill="#000000" xmlns="http://www.w3.org/2000/svg"  viewBox="0 0 50 50" width="50px" height="50px"><path d="M 9 4 C 6.2504839 4 4 6.2504839 4 9 L 4 41 C 4 43.749516 6.2504839 46 9 46 L 41 46 C 43.749516 46 46 43.749516 46 41 L 46 9 C 46 6.2504839 43.749516 4 41 4 L 9 4 z M 9 6 L 41 6 C 42.668484 6 44 7.3315161 44 9 L 44 41 C 44 42.668484 42.668484 44 41 44 L 9 44 C 7.3315161 44 6 42.668484 6 41 L 6 9 C 6 7.3315161 7.3315161 6 9 6 z M 36.990234 18.986328 A 1.0001 1.0001 0 0 0 36.292969 19.292969 L 25 30.585938 L 13.707031 19.292969 A 1.0001 1.0001 0 0 0 12.990234 18.990234 A 1.0001 1.0001 0 0 0 12.292969 20.707031 L 25 33.414062 L 37.707031 20.707031 A 1.0001 1.0001 0 0 0 36.990234 18.986328 z"/></svg>