<?xml version="1.0"?><svg fill="#000000" xmlns="http://www.w3.org/2000/svg"  viewBox="0 0 50 50" width="50px" height="50px">    <path d="M 7 4 C 4.243 4 2 6.243 2 9 L 2 33 C 2 35.757 4.243 38 7 38 L 11.140625 38 C 11.479625 40.896 10.624328 42.858578 8.4863281 44.142578 C 8.1013281 44.373578 7.9171094 44.834578 8.0371094 45.267578 C 8.1561094 45.700578 8.551 46 9 46 C 11.56 46 17.707594 45.205 20.683594 38 L 31.474609 38 L 33.458984 36 L 20 36 C 19.58 36 19.2065 36.261297 19.0625 36.654297 C 17.4205 41.130297 14.418937 42.90975 11.960938 43.59375 C 13.140937 41.84575 13.485375 39.578313 12.984375 36.820312 C 12.897375 36.345312 12.483 36 12 36 L 7 36 C 5.346 36 4 34.654 4 33 L 4 9 C 4 7.346 5.346 6 7 6 L 43 6 C 44.654 6 46 7.346 46 9 L 46 26.029297 C 46.707 26.039297 47.379 26.160906 48 26.378906 L 48 9 C 48 6.243 45.757 4 43 4 L 7 4 z M 45.900391 28.025391 C 44.900391 28.025391 43.999219 28.425 43.199219 29.125 L 43 29.224609 L 42.900391 29.324219 L 42.599609 29.625 L 41.900391 30.324219 L 41.699219 30.525391 L 30 42.324219 C 29.9 42.424219 29.799219 42.624609 29.699219 42.724609 L 28 48.724609 C 27.8 49.224609 28.099219 49.825781 28.699219 49.925781 C 28.899219 50.025781 29.099219 50.025781 29.199219 49.925781 L 35.199219 48.324219 C 35.399219 48.324219 35.499219 48.225391 35.699219 48.025391 L 48.5 35.224609 L 48.800781 35.025391 C 50.400781 33.425391 50.400781 30.824609 48.800781 29.224609 C 48.000781 28.324609 46.900391 28.025391 45.900391 28.025391 z M 45.900391 30.025391 C 46.400391 30.025391 47.000391 30.225 47.400391 30.625 C 48.200391 31.425 48.2 32.625781 47.5 33.425781 L 44.599609 30.525391 C 44.999609 30.225391 45.400391 30.025391 45.900391 30.025391 z M 43.099609 31.925781 L 46.099609 34.925781 L 35.199219 45.824219 L 32.199219 42.925781 L 43.099609 31.925781 z M 31.199219 44.824219 L 33.300781 46.925781 L 30.400391 47.724609 L 31.199219 44.824219 z"/></svg>