<svg fill="#000000" xmlns="http://www.w3.org/2000/svg"  viewBox="0 0 50 50" width="50px" height="50px"><path d="M 5 3 C 3.3544268 3 2 4.3555411 2 6 L 2 15 L 2 25 L 2 42 C 2 43.644459 3.3544268 45 5 45 L 8 45 L 8 48 A 1.0001 1.0001 0 0 0 9 49 L 17 49 A 1.0001 1.0001 0 0 0 18 48 L 18 45 L 32 45 L 32 48 A 1.0001 1.0001 0 0 0 33 49 L 41 49 A 1.0001 1.0001 0 0 0 42 48 L 42 45 L 45 45 C 46.645063 45 48 43.645063 48 42 L 48 25 L 48 15 L 48 10 C 48 8.3549372 46.645063 7 45 7 L 18 7 C 18.08657 7 17.96899 7.000364 17.724609 6.71875 C 17.480227 6.437136 17.179419 5.9699412 16.865234 5.46875 C 16.55105 4.9675588 16.221777 4.4327899 15.806641 3.9628906 C 15.391504 3.4929914 14.818754 3 14 3 L 5 3 z M 5 5 L 14 5 C 13.93925 5 14.06114 5.00701 14.308594 5.2871094 C 14.556051 5.5672101 14.857231 6.0324412 15.169922 6.53125 C 15.482613 7.0300588 15.806429 7.562864 16.212891 8.03125 C 16.619352 8.499636 17.178927 9 18 9 L 45 9 C 45.562937 9 46 9.4370628 46 10 L 46 12.1875 C 45.685108 12.07394 45.351843 12 45 12 L 5 12 C 4.6481575 12 4.3148915 12.07394 4 12.1875 L 4 6 C 4 5.4364589 4.4355732 5 5 5 z M 5 14 L 45 14 C 45.56503 14 46 14.43497 46 15 L 46 25 L 46 42 C 46 42.562937 45.562937 43 45 43 L 42 43 L 42 28 A 1.0001 1.0001 0 0 0 41 27 L 9 27 A 1.0001 1.0001 0 0 0 8 28 L 8 43 L 5 43 C 4.4355732 43 4 42.563541 4 42 L 4 25 L 4 15 C 4 14.43497 4.4349698 14 5 14 z M 10 29 L 40 29 L 40 47 L 34 47 L 34 44.167969 A 1.0001 1.0001 0 0 0 34 43.841797 L 34 36 A 1.0001 1.0001 0 0 0 33 35 L 17 35 A 1.0001 1.0001 0 0 0 16 36 L 16 43.832031 A 1.0001 1.0001 0 0 0 16 44.158203 L 16 47 L 10 47 L 10 29 z M 18 37 L 32 37 L 32 43 L 18 43 L 18 37 z"/></svg>