<svg fill="#000000" xmlns="http://www.w3.org/2000/svg"  viewBox="0 0 48 48" width="48px" height="48px"><path d="M 9.9707031 13.972656 A 2.0002 2.0002 0 0 0 8 16 L 8 32 A 2.0002 2.0002 0 1 0 12 32 L 12 26 L 19 26 L 19 32 A 2.0002 2.0002 0 1 0 23 32 L 23 16 A 2.0002 2.0002 0 1 0 19 16 L 19 22 L 12 22 L 12 16 A 2.0002 2.0002 0 0 0 9.9707031 13.972656 z M 33 14 C 29.471509 14 27.425781 16.765625 27.425781 16.765625 A 2.0004617 2.0004617 0 1 0 30.574219 19.234375 C 30.574219 19.234375 31.664491 18 33 18 C 34.127968 18 35 18.872032 35 20 C 35 21.127968 34.127968 22 33 22 A 2.0002 2.0002 0 0 0 32.408203 22.080078 A 2.0002 2.0002 0 0 0 32.21875 22.146484 A 2.0002 2.0002 0 0 0 31.865234 22.333984 A 2.0002 2.0002 0 0 0 31.304688 22.896484 A 2.0002 2.0002 0 0 0 31.005859 23.632812 A 2.0002 2.0002 0 0 0 30.978516 23.830078 A 2.0002 2.0002 0 0 0 30.972656 24.029297 A 2.0002 2.0002 0 0 0 30.984375 24.230469 A 2.0002 2.0002 0 0 0 31.017578 24.427734 A 2.0002 2.0002 0 0 0 31.070312 24.619141 A 2.0002 2.0002 0 0 0 31.230469 24.984375 A 2.0002 2.0002 0 0 0 31.337891 25.154297 A 2.0002 2.0002 0 0 0 31.916016 25.699219 A 2.0002 2.0002 0 0 0 32.275391 25.875 A 2.0002 2.0002 0 0 0 33 26 C 34.127968 26 35 26.872032 35 28 C 35 29.127968 34.127968 30 33 30 C 30.307679 30 29.847656 28.234375 29.847656 28.234375 A 2.0002 2.0002 0 1 0 26.152344 29.765625 C 26.152344 29.765625 28.178321 34 33 34 C 36.290032 34 39 31.290032 39 28 C 39 26.455935 38.366191 25.068369 37.392578 24 C 38.366191 22.931631 39 21.544065 39 20 C 39 16.709968 36.290032 14 33 14 z"/></svg>