<svg fill="#000000" xmlns="http://www.w3.org/2000/svg"  viewBox="0 0 48 48" width="48px" height="48px"><path d="M 5.9550781 5.9570312 A 3.0003 3.0003 0 0 0 3 9 L 3 39 A 3.0003 3.0003 0 1 0 9 39 L 9 27 L 22 27 L 22 39 A 3.0003 3.0003 0 1 0 28 39 L 28 9 A 3.0003 3.0003 0 1 0 22 9 L 22 21 L 9 21 L 9 9 A 3.0003 3.0003 0 0 0 5.9550781 5.9570312 z M 41.955078 5.9570312 A 3.0003 3.0003 0 0 0 40.259766 6.515625 L 32.658203 10.316406 A 3.0003493 3.0003493 0 1 0 35.341797 15.683594 L 39 13.855469 L 39 39 A 3.0003 3.0003 0 1 0 45 39 L 45 9.4335938 A 3.0003 3.0003 0 0 0 43.662109 6.4609375 A 3.0003 3.0003 0 0 0 43.65625 6.4570312 A 3.0003 3.0003 0 0 0 43.455078 6.3359375 A 3.0003 3.0003 0 0 0 43.449219 6.3339844 A 3.0003 3.0003 0 0 0 41.955078 5.9570312 z"/></svg>