<svg fill="#000000" xmlns="http://www.w3.org/2000/svg"  viewBox="0 0 48 48" width="48px" height="48px"><path d="M 6.4628906 11.964844 A 2.50025 2.50025 0 0 0 4 14.5 L 4 33.5 A 2.50025 2.50025 0 1 0 9 33.5 L 9 27 L 18 27 L 18 33.5 A 2.50025 2.50025 0 1 0 23 33.5 L 23 14.5 A 2.50025 2.50025 0 1 0 18 14.5 L 18 22 L 9 22 L 9 14.5 A 2.50025 2.50025 0 0 0 6.4628906 11.964844 z M 35.5 12 C 30.835165 12 27 15.835165 27 20.5 A 2.50025 2.50025 0 1 0 32 20.5 C 32 18.536835 33.536835 17 35.5 17 C 37.463165 17 39 18.536835 39 20.5 C 39 22.105027 38.677789 22.459611 38.058594 22.957031 C 37.439398 23.454452 36.223204 23.916921 34.707031 24.423828 C 33.190859 24.930735 31.364246 25.493339 29.740234 26.896484 C 28.116223 28.29963 27 30.644852 27 33.5 A 2.50025 2.50025 0 0 0 29.5 36 L 42.5 36 A 2.50025 2.50025 0 1 0 42.5 31 L 32.759766 31 C 32.851026 30.90435 32.903977 30.771089 33.009766 30.679688 C 33.635754 30.138832 34.809141 29.662109 36.292969 29.166016 C 37.776796 28.669923 39.560602 28.165548 41.191406 26.855469 C 42.822211 25.545389 44 23.252473 44 20.5 C 44 15.835165 40.164835 12 35.5 12 z"/></svg>