<svg fill="#000000" xmlns="http://www.w3.org/2000/svg"  viewBox="0 0 50 50" width="50px" height="50px"><path d="M 5 4 C 4.449219 4 4 4.449219 4 5 L 4 45 C 4 45.550781 4.449219 46 5 46 L 45 46 C 45.550781 46 46 45.550781 46 45 L 46 5 C 46 4.449219 45.550781 4 45 4 Z M 6 6 L 44 6 L 44 44 L 6 44 Z M 19 12 L 19 19 L 12 19 L 12 21 L 19 21 L 19 29 L 12 29 L 12 31 L 19 31 L 19 38 L 21 38 L 21 31 L 29 31 L 29 38 L 31 38 L 31 31 L 38 31 L 38 29 L 31 29 L 31 21 L 38 21 L 38 19 L 31 19 L 31 12 L 29 12 L 29 19 L 21 19 L 21 12 Z M 21 21 L 29 21 L 29 29 L 21 29 Z"/></svg>