<svg fill="#000000" xmlns="http://www.w3.org/2000/svg"  viewBox="0 0 50 50" width="50px" height="50px"><path d="M 19.984375 4.9863281 A 1.0001 1.0001 0 0 0 19.839844 5 L 5 5 C 3.3545455 5 2 6.3545455 2 8 L 2 42 C 2 43.645455 3.3545455 45 5 45 L 19.832031 45 A 1.0001 1.0001 0 0 0 20.158203 45 L 45 45 C 46.645455 45 48 43.645455 48 42 L 48 8 C 48 6.3545455 46.645455 5 45 5 L 20.154297 5 A 1.0001 1.0001 0 0 0 19.984375 4.9863281 z M 5 7 L 19 7 L 19 43 L 5 43 C 4.4454545 43 4 42.554545 4 42 L 4 8 C 4 7.4454545 4.4454545 7 5 7 z M 21 7 L 45 7 C 45.554545 7 46 7.4454545 46 8 L 46 42 C 46 42.554545 45.554545 43 45 43 L 21 43 L 21 7 z M 7 11 A 1 1 0 0 0 6 12 A 1 1 0 0 0 7 13 A 1 1 0 0 0 8 12 A 1 1 0 0 0 7 11 z M 11 11 A 1.0001 1.0001 0 1 0 11 13 L 16 13 A 1.0001 1.0001 0 1 0 16 11 L 11 11 z M 29.980469 11.990234 A 1.0001 1.0001 0 0 0 29.292969 12.292969 L 24.292969 17.292969 A 1.0001 1.0001 0 0 0 24.292969 18.707031 L 29.292969 23.707031 A 1.0001 1.0001 0 1 0 30.707031 22.292969 L 26.414062 18 L 30.707031 13.707031 A 1.0001 1.0001 0 0 0 29.980469 11.990234 z M 7 15 A 1 1 0 0 0 6 16 A 1 1 0 0 0 7 17 A 1 1 0 0 0 8 16 A 1 1 0 0 0 7 15 z M 11 15 A 1.0001 1.0001 0 1 0 11 17 L 16 17 A 1.0001 1.0001 0 1 0 16 15 L 11 15 z M 7 19 A 1 1 0 0 0 6 20 A 1 1 0 0 0 7 21 A 1 1 0 0 0 8 20 A 1 1 0 0 0 7 19 z M 11 19 A 1.0001 1.0001 0 1 0 11 21 L 16 21 A 1.0001 1.0001 0 1 0 16 19 L 11 19 z M 7 23 A 1 1 0 0 0 6 24 A 1 1 0 0 0 7 25 A 1 1 0 0 0 8 24 A 1 1 0 0 0 7 23 z M 11 23 A 1.0001 1.0001 0 1 0 11 25 L 16 25 A 1.0001 1.0001 0 1 0 16 23 L 11 23 z"/></svg>