<svg fill="#000000" xmlns="http://www.w3.org/2000/svg"  viewBox="0 0 50 50" width="50px" height="50px"><path d="M 7 2 L 7 48 L 36 48 L 36 46 L 9 46 L 9 4 L 28 4 L 28 16.984375 L 41 16.984375 L 41 27.199219 L 43 29.679688 L 43 15.599609 L 42.744141 15.34375 A 1.0001 1.0001 0 0 0 42.625 15.222656 L 29.400391 2 L 7 2 z M 30 5.4003906 L 39.583984 14.984375 L 30 14.984375 L 30 5.4003906 z M 18.460938 23 C 16.361937 23 13.964844 24.62625 13.964844 29.15625 C 13.964844 32.79525 15.503266 35 18.197266 35 C 18.967266 35 19.579688 34.878125 19.929688 34.703125 L 19.703125 33.128906 C 19.423125 33.232906 18.985828 33.339844 18.548828 33.339844 C 17.131828 33.339844 15.941406 32.201156 15.941406 29.035156 C 15.941406 25.816156 17.252297 24.644531 18.529297 24.644531 C 19.089297 24.644531 19.370391 24.747672 19.650391 24.888672 L 20 23.296875 C 19.771 23.155875 19.230937 23 18.460938 23 z M 28.451172 23 L 31.15625 35 L 33.240234 35 L 36 23 L 33.935547 23 L 32.972656 28.341797 C 32.722656 29.730797 32.456875 31.261281 32.296875 32.738281 L 32.242188 32.738281 C 32.064188 31.279281 31.76225 29.694953 31.53125 28.376953 L 30.535156 23 L 28.451172 23 z M 25.382812 23.001953 C 23.177812 23.001953 21.935547 24.452063 21.935547 26.289062 C 21.935547 27.566063 22.846203 28.737172 24.158203 29.576172 C 25.121203 30.242172 25.697266 30.784516 25.697266 31.728516 C 25.697266 32.709516 25.067109 33.375 23.912109 33.375 C 23.299109 33.375 22.53075 33.164344 22.09375 32.902344 L 21.777344 34.511719 C 22.145344 34.757719 23.037109 35.001953 23.912109 35.001953 C 26.030109 35.001953 27.533203 33.654109 27.533203 31.537109 C 27.533203 30.278109 26.940125 29.141109 25.453125 28.162109 C 24.245125 27.393109 23.773438 26.9725 23.773438 26.0625 C 23.773437 25.3435 24.280656 24.628906 25.347656 24.628906 C 25.977656 24.628906 26.469781 24.819297 26.800781 25.029297 L 27.132812 23.421875 C 26.818812 23.228875 26.133813 23.001953 25.382812 23.001953 z M 41.496094 31 L 33 41 L 38 41 L 38 50 L 45 50 L 45 41 L 50 41 L 41.496094 31 z M 41.496094 34 L 45.599609 39 L 43 39 L 43 48 L 40 48 L 40 39 L 37.400391 39 L 41.496094 34 z"/></svg>