<svg fill="#000000" xmlns="http://www.w3.org/2000/svg"  viewBox="0 0 50 50" width="50px" height="50px"><path d="M 11.980469 -0.009765625 A 1.0001 1.0001 0 0 0 11.951172 -0.0078125 A 1.0001 1.0001 0 0 0 11.183594 0.40234375 L 6.2929688 5.2929688 A 1.0001 1.0001 0 1 0 7.7070312 6.7070312 L 11 3.4140625 L 11 14 L 6 14 A 1.0001 1.0001 0 0 0 5 15 L 5 35 A 1.0001 1.0001 0 0 0 6 36 L 25 36 L 26 36 L 28.697266 36 C 28.945266 35.301 29.251187 34.633 29.617188 34 L 26 34 L 25 34 L 7 34 L 7 16 L 11.832031 16 A 1.0001 1.0001 0 0 0 12.158203 16 L 43 16 L 43 26 L 43 28.392578 C 43.693 28.571578 44.361 28.807563 45 29.101562 L 45 26 L 45 15 A 1.0001 1.0001 0 0 0 44 14 L 13 14 L 13 3.4140625 L 16.292969 6.7070312 A 1.0001 1.0001 0 1 0 17.707031 5.2929688 L 12.824219 0.41015625 A 1.0001 1.0001 0 0 0 11.988281 -0.009765625 A 1.0001 1.0001 0 0 0 11.980469 -0.009765625 z M 40 30 C 34.5 30 30 34.5 30 40 C 30 45.5 34.5 50 40 50 C 45.5 50 50 45.5 50 40 C 50 34.5 45.5 30 40 30 z M 40 32 C 44.4 32 48 35.6 48 40 C 48 44.4 44.4 48 40 48 C 35.6 48 32 44.4 32 40 C 32 35.6 35.6 32 40 32 z M 40 34.099609 C 39.4 34.099609 39 34.499609 39 35.099609 L 39 39 L 35.099609 39 C 34.499609 39 34.099609 39.4 34.099609 40 C 34.099609 40.6 34.499609 41 35.099609 41 L 39 41 L 39 44.900391 C 39 45.500391 39.4 45.900391 40 45.900391 C 40.6 45.900391 41 45.500391 41 44.900391 L 41 41 L 44.900391 41 C 45.500391 41 45.900391 40.6 45.900391 40 C 45.900391 39.4 45.500391 39 44.900391 39 L 41 39 L 41 35.099609 C 41 34.499609 40.6 34.099609 40 34.099609 z"/></svg>