<svg fill="#000000" xmlns="http://www.w3.org/2000/svg"  viewBox="0 0 50 50" width="50px" height="50px"><path d="M 25 0 C 23.964844 0 22.054688 0.246094 20.40625 1.625 C 20.390625 1.640625 20.351563 1.652344 20.34375 1.65625 C 19.785156 2.082031 18.414063 3.289063 16.4375 5 L 9 5 C 8.96875 5 8.9375 5 8.90625 5 C 8.390625 5.046875 7.996094 5.480469 8 6 L 8 12.46875 C 3.941406 16.058594 0.34375 19.25 0.34375 19.25 C 0.125 19.4375 0 19.710938 0 20 L 0 49 C 0 49.550781 0.449219 50 1 50 L 49 50 C 49.550781 50 50 49.550781 50 49 L 50 20 C 50 19.710938 49.875 19.4375 49.65625 19.25 C 49.65625 19.25 46.058594 16.058594 42 12.46875 L 42 6 C 42 5.449219 41.550781 5 41 5 L 33.5 5 C 31.601563 3.285156 30.214844 2.082031 29.65625 1.65625 C 29.648438 1.652344 29.609375 1.640625 29.59375 1.625 C 27.945313 0.246094 26.035156 0 25 0 Z M 25 2 C 25.75 2 27.207031 2.179688 28.34375 3.15625 C 28.363281 3.167969 28.386719 3.179688 28.40625 3.1875 C 28.523438 3.273438 29.726563 4.34375 30.46875 5 L 19.5 5 C 20.246094 4.351563 21.476563 3.273438 21.59375 3.1875 C 21.613281 3.179688 21.636719 3.167969 21.65625 3.15625 C 22.792969 2.179688 24.25 2 25 2 Z M 10 7 L 16.4375 7 C 16.628906 7.058594 16.839844 7.058594 17.03125 7 L 40 7 L 40 12.5 C 39.925781 12.710938 39.925781 12.945313 40 13.15625 L 40 26.8125 L 33.6875 31.78125 C 32.304688 30.695313 29.992188 28.902344 29.6875 28.65625 L 29.625 28.625 C 27.894531 27.242188 26.046875 27 25 27 C 23.878906 27 22.109375 27.34375 20.40625 28.59375 L 20.375 28.625 C 20.03125 28.878906 17.601563 30.777344 16.3125 31.78125 L 10 26.8125 L 10 13.0625 C 10.027344 12.929688 10.027344 12.789063 10 12.65625 Z M 24 10 L 24 16 L 18 16 L 18 18 L 24 18 L 24 24 L 26 24 L 26 18 L 32 18 L 32 16 L 26 16 L 26 10 Z M 8 15.125 L 8 25.25 L 2 20.53125 L 2 20.4375 C 2.238281 20.226563 5.148438 17.648438 8 15.125 Z M 42 15.125 C 44.851563 17.648438 47.761719 20.226563 48 20.4375 L 48 20.53125 L 42 25.25 Z M 2 23.09375 L 14.6875 33.0625 C 12.859375 34.492188 12.0625 35.09375 9.875 36.8125 C 5.871094 39.960938 3.164063 42.082031 2 43 Z M 48 23.09375 L 48 43.03125 C 46.515625 41.867188 40.574219 37.191406 35.3125 33.0625 Z M 25 29 C 25.75 29 27.105469 29.171875 28.375 30.1875 C 29.921875 31.425781 47.496094 45.167969 48 45.5625 L 48 48 L 2 48 L 2 45.5625 C 2.261719 45.355469 6.449219 42.054688 11.09375 38.40625 C 15.878906 34.644531 20.960938 30.683594 21.59375 30.21875 C 22.890625 29.269531 24.320313 29 25 29 Z"/></svg>