<svg fill="#000000" xmlns="http://www.w3.org/2000/svg"  viewBox="0 0 50 50" width="50px" height="50px"><path d="M 6 4 C 4.90625 4 4 4.90625 4 6 L 4 44 C 4 45.09375 4.90625 46 6 46 L 44 46 C 45.09375 46 46 45.09375 46 44 L 46 6 C 46 4.90625 45.09375 4 44 4 Z M 6 6 L 44 6 L 44 44 L 6 44 Z M 39.980469 8.992188 C 39.941406 8.992188 39.90625 8.996094 39.871094 9 L 25 9 C 24.640625 8.996094 24.304688 9.183594 24.121094 9.496094 C 23.941406 9.808594 23.941406 10.191406 24.121094 10.503906 C 24.304688 10.816406 24.640625 11.003906 25 11 L 37.585938 11 L 16.292969 32.292969 C 16.03125 32.542969 15.925781 32.917969 16.019531 33.265625 C 16.109375 33.617188 16.382813 33.890625 16.734375 33.980469 C 17.082031 34.074219 17.457031 33.96875 17.707031 33.707031 L 39 12.414063 L 39 25 C 38.996094 25.359375 39.183594 25.695313 39.496094 25.878906 C 39.808594 26.058594 40.191406 26.058594 40.503906 25.878906 C 40.816406 25.695313 41.003906 25.359375 41 25 L 41 10.125 C 41.039063 9.835938 40.949219 9.542969 40.753906 9.320313 C 40.558594 9.101563 40.273438 8.980469 39.980469 8.992188 Z"/></svg>