<svg fill="#000000" xmlns="http://www.w3.org/2000/svg"  viewBox="0 0 24 24" width="24px" height="24px"><path d="M 15 4.9707031 C 13.906937 4.9707031 13 5.8776403 13 6.9707031 L 13 10.970703 C 13 12.063766 13.906937 12.970703 15 12.970703 L 18.009766 12.970703 L 13.521484 19 L 16.015625 19 L 21 12.302734 L 21 9.9726562 L 21 6.9707031 C 21 5.8776403 20.093063 4.9707031 19 4.9707031 L 15 4.9707031 z M 5 5 C 3.9069372 5 3 5.9069372 3 7 L 3 11 C 3 12.093063 3.9069372 13 5 13 L 8.0097656 13 L 3.5429688 19 L 6.0351562 19 L 11 12.330078 L 11 12 L 11 10 L 11 7 C 11 5.9069372 10.093063 5 9 5 L 5 5 z M 15 6.9707031 L 19 6.9707031 L 19 10.970703 L 15 10.970703 L 15 6.9707031 z M 5 7 L 9 7 L 9 10 L 9 11 L 5 11 L 5 7 z"/></svg>