<svg fill="#000000" xmlns="http://www.w3.org/2000/svg"  viewBox="0 0 24 24" width="24px" height="24px"><path d="M 2 4 L 2 5 L 2.5 5 L 3 5 L 3 7.5 L 3 8 L 4 8 L 4 7.5 L 4 4 L 2.5 4 L 2 4 z M 7 5 L 7 7 L 22 7 L 22 5 L 7 5 z M 2 10 L 2 11 L 2.5 11 L 3.7929688 11 L 2 12.792969 L 2 14 L 4.5 14 L 5 14 L 5 13 L 4.5 13 L 3.2070312 13 L 5 11.207031 L 5 10 L 2.5 10 L 2 10 z M 7 11 L 7 13 L 22 13 L 22 11 L 7 11 z M 2 16 L 2 17 L 2.5 17 L 4 17 L 4 17.5 L 3.5 17.5 L 3 17.5 L 3 18.5 L 3.5 18.5 L 4 18.5 L 4 19 L 2.5 19 L 2 19 L 2 20 L 2.5 20 L 5 20 L 5 18.5 L 5 17.5 L 5 16 L 2.5 16 L 2 16 z M 7 17 L 7 19 L 22 19 L 22 17 L 7 17 z"/></svg>