<svg fill="#000000" xmlns="http://www.w3.org/2000/svg"  viewBox="0 0 24 24" width="24px" height="24px"><path d="M 5 3 L 5 4 L 5 10 L 5 12 L 5 21 L 13.5 21 C 16.525577 21 19 18.525577 19 15.5 C 19 13.325216 17.719617 11.439807 15.876953 10.548828 C 16.515985 9.8420151 17 8.8283216 17 7.5 C 17 5.4166667 15.81078 4.0997257 14.697266 3.5429688 C 13.583752 2.9862117 12.5 3 12.5 3 L 5 3 z M 7 5 L 12.5 5 C 12.5 5 13.166248 5.013788 13.802734 5.3320312 C 14.43922 5.6502744 15 6.0833333 15 7.5 C 15 8.9166667 14.43922 9.3497256 13.802734 9.6679688 C 13.166248 9.9862117 12.5 10 12.5 10 L 7 10 L 7 5 z M 7 12 L 12.5 12 L 12.599609 12 L 13.5 12 C 15.444423 12 17 13.555577 17 15.5 C 17 17.444423 15.444423 19 13.5 19 L 7 19 L 7 12 z"/></svg>