<svg fill="#000000" xmlns="http://www.w3.org/2000/svg"  viewBox="0 0 50 50" width="50px" height="50px"><path d="M 29.984375 5.984375 C 29.9375 5.988281 29.886719 5.992188 29.839844 6 L 5 6 C 3.355469 6 2 7.355469 2 9 L 2 41 C 2 42.644531 3.355469 44 5 44 L 29.832031 44 C 29.941406 44.019531 30.050781 44.019531 30.15625 44 L 45 44 C 46.644531 44 48 42.644531 48 41 L 48 9 C 48 7.355469 46.644531 6 45 6 L 30.15625 6 C 30.097656 5.992188 30.042969 5.984375 29.984375 5.984375 Z M 5 8 L 29 8 L 29 42 L 5 42 C 4.433594 42 4 41.566406 4 41 L 4 9 C 4 8.433594 4.433594 8 5 8 Z M 31 8 L 45 8 C 45.566406 8 46 8.433594 46 9 L 46 41 C 46 41.566406 45.566406 42 45 42 L 31 42 Z M 13.917969 18.988281 C 13.660156 19 13.414063 19.109375 13.234375 19.296875 L 7.59375 25 L 13.234375 30.703125 C 13.480469 30.964844 13.855469 31.074219 14.203125 30.984375 C 14.554688 30.894531 14.828125 30.621094 14.921875 30.273438 C 15.015625 29.921875 14.914063 29.550781 14.65625 29.296875 L 11.394531 26 L 23.941406 26 C 24.304688 26.003906 24.640625 25.816406 24.820313 25.503906 C 25.003906 25.191406 25.003906 24.808594 24.820313 24.496094 C 24.640625 24.183594 24.304688 23.996094 23.941406 24 L 11.394531 24 L 14.65625 20.703125 C 14.949219 20.414063 15.035156 19.972656 14.871094 19.59375 C 14.710938 19.214844 14.332031 18.976563 13.917969 18.988281 Z"/></svg>