<svg fill="#000000" xmlns="http://www.w3.org/2000/svg"  viewBox="0 0 50 50" width="50px" height="50px"><path d="M 2.84375 1 C 1.285156 1 0 2.285156 0 3.84375 L 0 12.8125 C -0.0078125 12.875 -0.0078125 12.9375 0 13 L 0 41 C 0 41.550781 0.449219 42 1 42 L 19 42 C 19.359375 42.003906 19.695313 41.816406 19.878906 41.503906 C 20.058594 41.191406 20.058594 40.808594 19.878906 40.496094 C 19.695313 40.183594 19.359375 39.996094 19 40 L 2 40 L 2 14 L 48 14 L 48 40 L 30 40 C 29.640625 39.996094 29.304688 40.183594 29.121094 40.496094 C 28.941406 40.808594 28.941406 41.191406 29.121094 41.503906 C 29.304688 41.816406 29.640625 42.003906 30 42 L 49 42 C 49.550781 42 50 41.550781 50 41 L 50 13 C 50.007813 12.9375 50.007813 12.875 50 12.8125 L 50 3.84375 C 50 2.285156 48.714844 1 47.15625 1 Z M 2.84375 3 L 47.15625 3 C 47.636719 3 48 3.363281 48 3.84375 L 48 12 L 2 12 L 2 3.84375 C 2 3.363281 2.363281 3 2.84375 3 Z M 6.5 5 C 5.121094 5 4 6.121094 4 7.5 C 4 8.878906 5.121094 10 6.5 10 C 7.878906 10 9 8.878906 9 7.5 C 9 6.121094 7.878906 5 6.5 5 Z M 12.5 5 C 11.121094 5 10 6.121094 10 7.5 C 10 8.878906 11.121094 10 12.5 10 C 13.878906 10 15 8.878906 15 7.5 C 15 6.121094 13.878906 5 12.5 5 Z M 17 5 L 17 10 L 46 10 L 46 5 Z M 19 7 L 44 7 L 44 8 L 19 8 Z M 25 20.59375 L 24.28125 21.28125 L 16.3125 29.25 C 15.914063 29.648438 15.914063 30.289063 16.3125 30.6875 C 16.710938 31.085938 17.351563 31.085938 17.75 30.6875 L 24 24.4375 L 24 37 C 24 41 22.867188 43.386719 21.125 44.875 C 19.382813 46.363281 16.894531 47 14 47 L 10 47 C 9.640625 46.996094 9.304688 47.183594 9.121094 47.496094 C 8.941406 47.808594 8.941406 48.191406 9.121094 48.503906 C 9.304688 48.816406 9.640625 49.003906 10 49 L 14 49 C 17.179688 49 20.195313 48.320313 22.4375 46.40625 C 24.679688 44.492188 26 41.394531 26 37 L 26 24.4375 L 32.25 30.6875 C 32.648438 31.085938 33.289063 31.085938 33.6875 30.6875 C 34.085938 30.289063 34.085938 29.648438 33.6875 29.25 L 25.71875 21.28125 Z"/></svg>