<svg fill="#000000" xmlns="http://www.w3.org/2000/svg"  viewBox="0 0 50 50" width="50px" height="50px"><path d="M 10 4 C 8.355469 4 7 5.355469 7 7 L 7 45 C 7 45.550781 7.449219 46 8 46 L 42 46 C 42.550781 46 43 45.550781 43 45 L 43 7 C 43 5.355469 41.644531 4 40 4 Z M 10 6 L 40 6 C 40.554688 6 41 6.445313 41 7 L 41 44 L 29 44 L 29 36 C 29 35.449219 28.550781 35 28 35 L 22 35 C 21.96875 35 21.9375 35 21.90625 35 C 21.390625 35.046875 20.996094 35.480469 21 36 L 21 44 L 9 44 L 9 7 C 9 6.445313 9.445313 6 10 6 Z M 11.8125 8 C 11.335938 8.089844 10.992188 8.511719 11 9 L 11 14 C 11 14.550781 11.449219 15 12 15 L 18 15 C 18.550781 15 19 14.550781 19 14 L 19 9 C 19 8.449219 18.550781 8 18 8 L 12 8 C 11.96875 8 11.9375 8 11.90625 8 C 11.875 8 11.84375 8 11.8125 8 Z M 21.8125 8 C 21.335938 8.089844 20.992188 8.511719 21 9 L 21 14 C 21 14.550781 21.449219 15 22 15 L 28 15 C 28.550781 15 29 14.550781 29 14 L 29 9 C 29 8.449219 28.550781 8 28 8 L 22 8 C 21.96875 8 21.9375 8 21.90625 8 C 21.875 8 21.84375 8 21.8125 8 Z M 31.8125 8 C 31.335938 8.089844 30.992188 8.511719 31 9 L 31 14 C 31 14.550781 31.449219 15 32 15 L 38 15 C 38.550781 15 39 14.550781 39 14 L 39 9 C 39 8.449219 38.550781 8 38 8 L 32 8 C 31.96875 8 31.9375 8 31.90625 8 C 31.875 8 31.84375 8 31.8125 8 Z M 13 10 L 17 10 L 17 13 L 13 13 Z M 23 10 L 27 10 L 27 13 L 23 13 Z M 33 10 L 37 10 L 37 13 L 33 13 Z M 11.8125 17 C 11.335938 17.089844 10.992188 17.511719 11 18 L 11 23 C 11 23.550781 11.449219 24 12 24 L 18 24 C 18.550781 24 19 23.550781 19 23 L 19 18 C 19 17.449219 18.550781 17 18 17 L 12 17 C 11.96875 17 11.9375 17 11.90625 17 C 11.875 17 11.84375 17 11.8125 17 Z M 21.8125 17 C 21.335938 17.089844 20.992188 17.511719 21 18 L 21 23 C 21 23.550781 21.449219 24 22 24 L 28 24 C 28.550781 24 29 23.550781 29 23 L 29 18 C 29 17.449219 28.550781 17 28 17 L 22 17 C 21.96875 17 21.9375 17 21.90625 17 C 21.875 17 21.84375 17 21.8125 17 Z M 31.8125 17 C 31.335938 17.089844 30.992188 17.511719 31 18 L 31 23 C 31 23.550781 31.449219 24 32 24 L 38 24 C 38.550781 24 39 23.550781 39 23 L 39 18 C 39 17.449219 38.550781 17 38 17 L 32 17 C 31.96875 17 31.9375 17 31.90625 17 C 31.875 17 31.84375 17 31.8125 17 Z M 13 19 L 17 19 L 17 22 L 13 22 Z M 23 19 L 27 19 L 27 22 L 23 22 Z M 33 19 L 37 19 L 37 22 L 33 22 Z M 11.8125 26 C 11.335938 26.089844 10.992188 26.511719 11 27 L 11 32 C 11 32.550781 11.449219 33 12 33 L 18 33 C 18.550781 33 19 32.550781 19 32 L 19 27 C 19 26.449219 18.550781 26 18 26 L 12 26 C 11.96875 26 11.9375 26 11.90625 26 C 11.875 26 11.84375 26 11.8125 26 Z M 21.8125 26 C 21.335938 26.089844 20.992188 26.511719 21 27 L 21 32 C 21 32.550781 21.449219 33 22 33 L 28 33 C 28.550781 33 29 32.550781 29 32 L 29 27 C 29 26.449219 28.550781 26 28 26 L 22 26 C 21.96875 26 21.9375 26 21.90625 26 C 21.875 26 21.84375 26 21.8125 26 Z M 31.8125 26 C 31.335938 26.089844 30.992188 26.511719 31 27 L 31 32 C 31 32.550781 31.449219 33 32 33 L 38 33 C 38.550781 33 39 32.550781 39 32 L 39 27 C 39 26.449219 38.550781 26 38 26 L 32 26 C 31.96875 26 31.9375 26 31.90625 26 C 31.875 26 31.84375 26 31.8125 26 Z M 13 28 L 17 28 L 17 31 L 13 31 Z M 23 28 L 27 28 L 27 31 L 23 31 Z M 33 28 L 37 28 L 37 31 L 33 31 Z M 11.8125 35 C 11.335938 35.089844 10.992188 35.511719 11 36 L 11 41 C 11 41.550781 11.449219 42 12 42 L 18 42 C 18.550781 42 19 41.550781 19 41 L 19 36 C 19 35.449219 18.550781 35 18 35 L 12 35 C 11.96875 35 11.9375 35 11.90625 35 C 11.875 35 11.84375 35 11.8125 35 Z M 31.8125 35 C 31.335938 35.089844 30.992188 35.511719 31 36 L 31 41 C 31 41.550781 31.449219 42 32 42 L 38 42 C 38.550781 42 39 41.550781 39 41 L 39 36 C 39 35.449219 38.550781 35 38 35 L 32 35 C 31.96875 35 31.9375 35 31.90625 35 C 31.875 35 31.84375 35 31.8125 35 Z M 13 37 L 17 37 L 17 40 L 13 40 Z M 23 37 L 27 37 L 27 44 L 23 44 Z M 33 37 L 37 37 L 37 40 L 33 40 Z"/></svg>