<svg xmlns="http://www.w3.org/2000/svg"  viewBox="0 0 24 24" width="24px" height="24px"><path d="M16.414,7.586c-0.781-0.781-2.047-0.781-2.828,0l-6,6c-0.781,0.781-0.781,2.047,0,2.828c0.781,0.781,2.047,0.781,2.828,0	l6-6C17.195,9.633,17.195,8.367,16.414,7.586z"/><path d="M20.389,3.611c-2.148-2.148-5.63-2.148-7.778,0c-0.171,0.171-0.829,0.829-1,1c-1.548,1.548-1.963,3.786-1.279,5.722 c-1.936-0.684-4.173-0.27-5.721,1.278c-0.171,0.171-0.829,0.829-1,1c-2.148,2.148-2.148,5.63,0,7.778 c2.148,2.148,5.63,2.148,7.778,0c0.171-0.171,0.829-0.829,1-1c1.548-1.548,1.963-3.786,1.279-5.722 c1.936,0.684,4.173,0.27,5.721-1.278c0.171-0.171,0.829-0.829,1-1C22.537,9.241,22.537,5.759,20.389,3.611z" opacity=".35"/></svg>