<svg xmlns="http://www.w3.org/2000/svg"  viewBox="0 0 24 24" width="24px" height="24px"><path d="M11,9.536c0-3.038-2.462-5.5-5.5-5.5S0,6.498,0,9.536c0,3.038,2.462,5.5,5.5,5.5c0.169,0,0.335-0.01,0.5-0.025v3.324 c0,1.224,1.636,1.617,2.203,0.532c1.262-2.412,2.61-5.677,2.766-8.753C10.989,9.923,11,9.731,11,9.536z" opacity=".35"/><path d="M24,9.536c0-3.038-2.462-5.5-5.5-5.5S13,6.498,13,9.536c0,3.038,2.462,5.5,5.5,5.5c0.169,0,0.335-0.01,0.5-0.025v3.324 c0,1.224,1.636,1.617,2.203,0.532c1.262-2.412,2.61-5.677,2.766-8.753C23.989,9.923,24,9.731,24,9.536z"/></svg>