<svg xmlns="http://www.w3.org/2000/svg"  viewBox="0 0 24 24" width="24px" height="24px"><path d="M2.5,20L2.5,20C1.672,20,1,19.328,1,18.5v-12C1,5.672,1.672,5,2.5,5h0C3.328,5,4,5.672,4,6.5v12C4,19.328,3.328,20,2.5,20z"/><path d="M10.5,20L10.5,20C9.672,20,9,19.328,9,18.5v-12C9,5.672,9.672,5,10.5,5h0C11.328,5,12,5.672,12,6.5v12 C12,19.328,11.328,20,10.5,20z"/><rect width="3" height="9" x="5" y="8" transform="rotate(90 6.5 12.5)"/><path d="M23,9.421c0,2.583-1.763,4.014-4.91,7.737h3.301c0.786,0,1.424,0.637,1.424,1.424v0 c0,0.786-0.637,1.424-1.424,1.424h-5.084c-1.181,0-2.139-0.957-2.139-2.139v0c0-0.511,0.184-1.008,0.517-1.394 c3.619-4.201,5.075-5.409,5.075-7.011c0-0.425-0.088-1.547-1.237-1.547c-0.656,0-1.023,0.417-1.227,0.891 c-0.258,0.598-0.887,0.947-1.535,0.887l0,0c-1.03-0.096-1.71-1.176-1.281-2.117c0.58-1.275,1.757-2.487,4.146-2.487 C22.125,5.087,23,7.707,23,9.421z" opacity=".35"/></svg>