<svg xmlns="http://www.w3.org/2000/svg"  viewBox="0 0 24 24" width="24px" height="24px"><path d="M2.5,20L2.5,20C1.672,20,1,19.328,1,18.5v-12C1,5.672,1.672,5,2.5,5h0C3.328,5,4,5.672,4,6.5v12C4,19.328,3.328,20,2.5,20z"/><path d="M10.5,20L10.5,20C9.672,20,9,19.328,9,18.5v-12C9,5.672,9.672,5,10.5,5h0C11.328,5,12,5.672,12,6.5v12 C12,19.328,11.328,20,10.5,20z"/><rect width="3" height="9" x="5" y="8" transform="rotate(90 6.5 12.5)"/><path d="M19.5,5c-0.307,0-0.591,0.093-0.829,0.251c-0.001,0.001-0.002,0-0.003,0.001l-0.005,0.003 c-0.001,0.001-0.002,0.001-0.003,0.002l-2.992,1.995c-0.689,0.46-0.876,1.391-0.416,2.08C15.541,9.766,16.017,10,16.501,10 c0.286,0,0.575-0.081,0.831-0.252L18,9.303V18.5c0,0.828,0.672,1.5,1.5,1.5s1.5-0.672,1.5-1.5v-12C21,5.672,20.328,5,19.5,5z" opacity=".35"/></svg>