<svg xmlns="http://www.w3.org/2000/svg"  viewBox="0 0 24 24" width="24px" height="24px"><path d="M2.5,20L2.5,20C1.672,20,1,19.328,1,18.5v-12C1,5.672,1.672,5,2.5,5h0C3.328,5,4,5.672,4,6.5v12C4,19.328,3.328,20,2.5,20z"/><path d="M10.5,20L10.5,20C9.672,20,9,19.328,9,18.5v-12C9,5.672,9.672,5,10.5,5h0C11.328,5,12,5.672,12,6.5v12 C12,19.328,11.328,20,10.5,20z"/><rect width="3" height="9" x="5" y="8" transform="rotate(90 6.5 12.5)"/><path d="M22.967,15.565c0,3.325-2.466,4.631-4.649,4.631c-2.059,0-3.296-0.852-4.011-1.849 c-0.616-0.86-0.141-2.076,0.884-2.337l0,0c0.634-0.162,1.276,0.117,1.653,0.652c0.258,0.367,0.668,0.677,1.327,0.677 c1.275,0,1.564-1.316,1.564-1.918c0-1.343-0.85-1.878-2.022-1.878h-0.025c-0.679,0-1.23-0.551-1.23-1.23v0 c0-0.679,0.551-1.23,1.23-1.23h0.109c0.556,0,1.731-0.194,1.731-1.857c0-0.416-0.169-1.564-1.356-1.564 c-0.511,0-0.843,0.249-1.061,0.548c-0.34,0.466-0.897,0.72-1.457,0.581l-0.19-0.047c-0.918-0.228-1.352-1.309-0.807-2.082 c0.654-0.928,1.796-1.857,3.746-1.857c2.464,0,4.275,1.611,4.275,4.006c0,2.027-1.096,3.102-2.022,3.356v0.063 C21.448,12.402,22.967,13.385,22.967,15.565z" opacity=".35"/></svg>