<svg fill="#000000" xmlns="http://www.w3.org/2000/svg"  viewBox="0 0 50 50" width="50px" height="50px"><path d="M 25 2 C 12.308594 2 2 12.308594 2 25 C 2 37.691406 12.308594 48 25 48 C 37.691406 48 48 37.691406 48 25 C 48 12.308594 37.691406 2 25 2 Z M 25 4 C 36.609375 4 46 13.390625 46 25 C 46 36.609375 36.609375 46 25 46 C 13.390625 46 4 36.609375 4 25 C 4 13.390625 13.390625 4 25 4 Z M 27.875 14 C 27.652344 14.023438 27.441406 14.125 27.28125 14.28125 L 17.28125 24.28125 C 17.085938 24.46875 16.976563 24.730469 16.976563 25 C 16.976563 25.269531 17.085938 25.53125 17.28125 25.71875 L 27.28125 35.71875 C 27.679688 36.117188 28.320313 36.117188 28.71875 35.71875 C 29.117188 35.320313 29.117188 34.679688 28.71875 34.28125 L 19.4375 25 L 28.71875 15.71875 C 29.042969 15.417969 29.128906 14.941406 28.933594 14.546875 C 28.742188 14.148438 28.308594 13.929688 27.875 14 Z"/></svg>