<svg fill="#000000" xmlns="http://www.w3.org/2000/svg"  viewBox="0 0 50 50" width="50px" height="50px"><path d="M 5 4 C 4.447 4 4 4.447 4 5 L 4 45 C 4 45.553 4.447 46 5 46 L 23.240234 46 C 22.469234 45.249 21.838281 44.558 21.363281 44 L 6 44 L 6 6 L 44 6 L 44 32.564453 C 44.709 33.003453 45.379 33.466266 46 33.947266 L 46 5 C 46 4.447 45.553 4 45 4 L 5 4 z M 21 9 C 19.354545 9 18 10.354545 18 12 C 18 13.645455 19.354545 15 21 15 L 29 15 C 30.645455 15 32 13.645455 32 12 C 32 10.354545 30.645455 9 29 9 L 21 9 z M 21 11 L 29 11 C 29.554545 11 30 11.445455 30 12 C 30 12.554545 29.554545 13 29 13 L 21 13 C 20.445455 13 20 12.554545 20 12 C 20 11.445455 20.445455 11 21 11 z M 35.800781 32 C 28.200781 32 22.2 40.100391 22 40.400391 L 21.599609 41 L 22 41.599609 C 22.2 41.899609 28.200781 50 35.800781 50 C 43.400781 50 49.399609 41.899609 49.599609 41.599609 L 50 41 L 49.599609 40.400391 C 49.399609 40.100391 43.400781 32 35.800781 32 z M 35.800781 34 C 41.300781 34 46.1 39.2 47.5 41 C 46.1 42.8 41.300781 48 35.800781 48 C 30.300781 48 25.599609 42.8 24.099609 41 C 25.499609 39.2 30.300781 34 35.800781 34 z M 36 35 C 32.7 35 30 37.7 30 41 C 30 44.3 32.7 47 36 47 C 39.3 47 42 44.3 42 41 C 42 37.7 39.3 35 36 35 z M 36 37 C 38.2 37 40 38.8 40 41 C 40 43.2 38.2 45 36 45 C 33.8 45 32 43.2 32 41 C 32 38.8 33.8 37 36 37 z M 36 39 A 2 2 0 0 0 36 43 A 2 2 0 0 0 36 39 z"/></svg>