<svg fill="#000000" xmlns="http://www.w3.org/2000/svg" viewBox="0 0 50 50">
<path d="M3,37.1c0,0,0,0.1,0,0.1c0,0,0,0.1,0,0.1c0,0,0,0.1,0,0.1c0,0.1,0.1,0.1,0.1,0.2c0,0,0.1,0.1,0.1,0.1c0,0,0.1,0.1,0.2,0.1
	l7.8,7.9c0.4,0.4,1,0.4,1.4,0c0.4-0.4,0.4-1,0-1.4L6.4,38H38c0.4,0,0.7-0.2,0.9-0.5c0.2-0.3,0.2-0.7,0-1C38.7,36.2,38.4,36,38,36
	H6.4l6.3-6.3c0.4-0.4,0.4-1,0-1.4c-0.4-0.4-1-0.4-1.4,0l-7.8,7.9c-0.1,0.1-0.2,0.2-0.3,0.3C3.1,36.5,3,36.7,3,36.8
	C3,36.9,3,37,3,37.1z M3,13c0,0.6,0.4,1,1,1s1-0.4,1-1s-0.4-1-1-1S3,12.4,3,13z M7,13c0,0.6,0.4,1,1,1s1-0.4,1-1s-0.4-1-1-1
	S7,12.4,7,13z M11,13.1c0,0,0,0.1,0,0.1c0.1,0.5,0.5,0.8,1,0.8h31.6l-6.3,6.3c-0.2,0.2-0.4,0.6-0.3,0.9c0.1,0.4,0.3,0.7,0.7,0.8
	c0.4,0.1,0.8,0,1-0.3l7.8-7.9c0,0,0.1,0,0.1-0.1l0.1-0.1c0,0,0,0,0.1-0.1c0,0,0,0,0,0c0.1-0.1,0.1-0.1,0.2-0.2c0,0,0,0,0,0
	c0,0,0,0,0-0.1c0,0,0,0,0,0c0,0,0-0.1,0-0.1c0-0.1,0-0.2,0-0.3c0,0,0,0,0-0.1c0-0.1-0.1-0.2-0.1-0.2c-0.1-0.1-0.2-0.2-0.3-0.3
	l-7.9-7.9c-0.4-0.4-1-0.4-1.4,0s-0.4,1,0,1.4l6.3,6.3H12c-0.3,0-0.6,0.1-0.8,0.3C11,12.5,11,12.8,11,13.1z M41,37c0,0.6,0.4,1,1,1
	s1-0.4,1-1s-0.4-1-1-1S41,36.4,41,37z M45,37c0,0.6,0.4,1,1,1s1-0.4,1-1s-0.4-1-1-1S45,36.4,45,37z"/>
</svg>
