<svg fill="#000000" xmlns="http://www.w3.org/2000/svg"  viewBox="0 0 50 50" width="50px" height="50px"><path d="M 28.992188 9 C 23.926188 9 19.629328 11.6735 17.486328 16.0625 C 16.386328 15.3715 15.062625 15 13.640625 15 C 10.003625 15 7.2249531 17.765719 7.0019531 21.511719 C 2.5409531 23.020719 -5.9211895e-16 26.561078 0 31.330078 C 0 36.662078 4.3379219 41 9.6699219 41 L 32.548828 41 L 28.548828 39 L 9.6699219 39 C 5.4409219 39 2 35.559078 2 31.330078 C 2 25.775078 5.9265781 23.861844 8.2675781 23.214844 L 9.0273438 23.005859 L 8.9863281 22 C 8.9863281 19.149 10.987625 17 13.640625 17 C 15.048625 17 16.307594 17.483328 17.183594 18.361328 L 18.287109 19.466797 L 18.830078 18.001953 C 20.428078 13.682953 24.322187 11 28.992188 11 C 35.164187 11 40 15.832 40 22 C 40 22.415 39.970297 22.853859 39.904297 23.380859 L 39.822266 24.501953 L 40.953125 24.501953 C 41.054125 24.501953 41.154859 24.514531 41.255859 24.519531 L 44.421875 23.308594 C 43.651875 22.946594 42.833375 22.694125 41.984375 22.578125 C 41.995375 22.380125 42 22.188 42 22 C 42 14.71 36.286187 9 28.992188 9 z M 49.035156 24 A 1.0001 1.0001 0 0 0 48.642578 24.066406 L 24.642578 33.246094 A 1.0001 1.0001 0 0 0 24.552734 35.076172 L 34.132812 39.865234 L 38.929688 49.447266 A 1.0001 1.0001 0 0 0 40.757812 49.357422 L 49.933594 25.357422 A 1.0001 1.0001 0 0 0 49.035156 24 z M 44.976562 27.609375 L 34.681641 37.904297 L 27.480469 34.302734 L 44.976562 27.609375 z M 46.390625 29.023438 L 39.699219 46.521484 L 36.095703 39.318359 L 46.390625 29.023438 z"/></svg>