<svg fill="#000000" xmlns="http://www.w3.org/2000/svg"  viewBox="0 0 50 50" width="50px" height="50px"><path d="M 3 7 L 3 39 L 26 39 L 26 37 L 5 37 L 5 34.980469 L 17.808594 24.851563 C 18.84375 25.757813 20.757813 27.421875 21 27.632813 C 22.523438 28.960938 24.140625 29.296875 25.175781 29.296875 C 26.210938 29.296875 27.828125 28.960938 29.355469 27.632813 C 30.539063 26.601563 42.179688 16.453125 45 13.996094 L 45 31 L 47 33 L 47 7 Z M 5 9 L 45 9 L 45 11.34375 C 43.964844 12.246094 29.3125 25.019531 28.042969 26.125 C 26.921875 27.101563 25.78125 27.296875 25.175781 27.296875 C 24.570313 27.296875 23.433594 27.097656 22.3125 26.125 C 21.007813 24.988281 5.441406 11.421875 5 11.035156 Z M 5 13.6875 C 6.695313 15.167969 11.71875 19.546875 16.273438 23.515625 L 5 32.429688 Z M 38.988281 29.988281 C 38.582031 29.992188 38.21875 30.238281 38.0625 30.613281 C 37.910156 30.992188 38 31.421875 38.292969 31.707031 L 43.585938 37 L 30 37 L 30 39 L 43.585938 39 L 38.292969 44.292969 C 38.03125 44.542969 37.925781 44.917969 38.019531 45.265625 C 38.109375 45.617188 38.382813 45.890625 38.734375 45.980469 C 39.082031 46.074219 39.457031 45.96875 39.707031 45.707031 L 47.414063 38 L 39.707031 30.292969 C 39.519531 30.097656 39.261719 29.992188 38.988281 29.988281 Z"/></svg>