<svg fill="#000000" xmlns="http://www.w3.org/2000/svg"  viewBox="0 0 50 50" width="50px" height="50px"><path d="M 3 2 L 3 10 L 6 10 L 6 43 L 19 43 L 19 46 L 27 46 L 27 38 L 19 38 L 19 41 L 8 41 L 8 32 L 19 32 L 19 35 L 27 35 L 27 27 L 19 27 L 19 30 L 8 30 L 8 21 L 19 21 L 19 24 L 27 24 L 27 16 L 19 16 L 19 19 L 8 19 L 8 10 L 11 10 L 11 2 Z M 5 4 L 9 4 L 9 8 L 5 8 Z M 36 16 L 36 25 L 30.808594 25 L 32.246094 26.65625 L 39.5 35.003906 L 48.191406 25 L 43 25 L 43 16 Z M 38 18 L 41 18 L 41 27 L 43.808594 27 L 39.5 31.957031 L 35.191406 27 L 38 27 Z M 21 29 L 25 29 L 25 33 L 21 33 Z M 21 40 L 25 40 L 25 44 L 21 44 Z"/></svg>