<svg fill="#000000" xmlns="http://www.w3.org/2000/svg"  viewBox="0 0 50 50" width="50px" height="50px"><path d="M 9 2 L 9 10 L 12 10 L 12 42 L 21.609375 42 L 21.8125 41.289063 C 21.949219 40.800781 22.210938 40.359375 22.5625 40 L 14 40 L 14 31 L 25 31 L 25 34 L 28.558594 34 L 30.558594 32 L 27 32 L 27 28 L 31 28 L 31 31.558594 L 33 29.558594 L 33 26 L 25 26 L 25 29 L 14 29 L 14 19 L 25 19 L 25 22 L 33 22 L 33 14 L 25 14 L 25 17 L 14 17 L 14 10 L 17 10 L 17 2 Z M 11 4 L 15 4 L 15 8 L 11 8 Z M 27 16 L 31 16 L 31 20 L 27 20 Z M 43.011719 24.085938 C 41.957031 24.078125 40.898438 24.46875 40.097656 25.265625 L 39.402344 25.96875 L 39.410156 25.976563 L 23.992188 41.390625 C 23.871094 41.511719 23.785156 41.664063 23.738281 41.828125 L 23.6875 42 L 22.035156 47.828125 C 21.9375 48.175781 22.035156 48.546875 22.285156 48.800781 C 22.476563 48.996094 22.898438 49.039063 23.257813 48.953125 L 29.257813 47.46875 C 29.425781 47.421875 29.582031 47.332031 29.703125 47.210938 L 45.503906 31.511719 C 45.546875 31.46875 45.566406 31.414063 45.601563 31.363281 L 45.902344 31.066406 C 47.269531 29.285156 47.445313 26.789063 45.902344 25.265625 C 45.113281 24.492188 44.0625 24.09375 43.011719 24.085938 Z M 40.824219 27.390625 L 43.808594 30.375 L 29.195313 44.898438 L 26.222656 41.992188 Z M 25.25 43.839844 L 27.359375 45.902344 L 24.441406 46.683594 Z"/></svg>