<svg fill="#000000" xmlns="http://www.w3.org/2000/svg"  viewBox="0 0 50 50" width="50px" height="50px"><path d="M 17 0 C 12.042969 0 8 4.042969 8 9 C 8 13.621094 11.511719 17.441406 16 17.941406 L 16 45 L 29 45 L 29 48 L 37 48 L 37 40 L 29 40 L 29 43 L 18 43 L 18 34 L 29 34 L 29 37 L 37 37 L 37 29 L 29 29 L 29 32 L 18 32 L 18 23 L 29 23 L 29 26 L 37 26 L 37 18 L 29 18 L 29 21 L 18 21 L 18 17.941406 C 22.488281 17.441406 26 13.621094 26 9 C 26 4.042969 21.957031 0 17 0 Z M 17 2 C 20.878906 2 24 5.121094 24 9 C 24 12.878906 20.878906 16 17 16 C 13.121094 16 10 12.878906 10 9 C 10 5.121094 13.121094 2 17 2 Z M 13.988281 4.992188 C 13.582031 4.992188 13.21875 5.238281 13.0625 5.613281 C 12.910156 5.992188 13 6.421875 13.292969 6.707031 L 15.585938 9 L 13.292969 11.292969 C 13.03125 11.542969 12.925781 11.917969 13.019531 12.265625 C 13.109375 12.617188 13.382813 12.890625 13.734375 12.980469 C 14.082031 13.074219 14.457031 12.96875 14.707031 12.707031 L 17 10.414063 L 19.292969 12.707031 C 19.542969 12.96875 19.917969 13.074219 20.265625 12.980469 C 20.617188 12.890625 20.890625 12.617188 20.980469 12.265625 C 21.074219 11.917969 20.96875 11.542969 20.707031 11.292969 L 18.414063 9 L 20.707031 6.707031 C 21.003906 6.417969 21.089844 5.980469 20.929688 5.601563 C 20.769531 5.21875 20.394531 4.976563 19.980469 4.992188 C 19.71875 4.996094 19.472656 5.105469 19.292969 5.292969 L 17 7.585938 L 14.707031 5.292969 C 14.519531 5.097656 14.261719 4.992188 13.988281 4.992188 Z M 31 20 L 35 20 L 35 24 L 31 24 Z M 31 31 L 35 31 L 35 35 L 31 35 Z M 31 42 L 35 42 L 35 46 L 31 46 Z"/></svg>