<svg fill="#000000" xmlns="http://www.w3.org/2000/svg"  viewBox="0 0 50 50" width="50px" height="50px"><path d="M 3 5 L 3 13 L 6 13 L 6 43 L 19 43 L 19 46 L 27 46 L 27 38 L 19 38 L 19 41 L 8 41 L 8 32 L 19 32 L 19 35 L 27 35 L 27 27 L 19 27 L 19 30 L 8 30 L 8 21 L 19 21 L 19 24 L 27 24 L 27 16 L 19 16 L 19 19 L 8 19 L 8 13 L 11 13 L 11 5 Z M 5 7 L 9 7 L 9 11 L 5 11 Z M 21 18 L 25 18 L 25 22 L 21 22 Z M 39.5 27.414063 L 30.898438 38 L 36 38 L 36 47 L 43 47 L 43 38 L 48.101563 38 Z M 21 29 L 25 29 L 25 33 L 21 33 Z M 39.5 30.585938 L 43.902344 36 L 41 36 L 41 45 L 38 45 L 38 36 L 35.097656 36 Z"/></svg>