<svg fill="#000000" xmlns="http://www.w3.org/2000/svg"  viewBox="0 0 50 50" width="50px" height="50px"><path d="M 21.90625 0.40625 C 18.207031 0.507813 15.507813 1.585938 13.90625 3.6875 C 12.007813 6.1875 11.613281 10.085938 12.8125 15.1875 C 12.3125 15.789063 11.992188 16.585938 12.09375 17.6875 C 12.394531 19.886719 13.207031 20.789063 13.90625 21.1875 C 14.207031 22.886719 15.007813 24.914063 15.90625 25.8125 L 15.90625 29.40625 C 15.304688 30.804688 13.300781 31.601563 11 32.5 C 7.199219 34 2.398438 35.90625 2 41.90625 L 1.90625 43 L 34.40625 43 L 32.1875 41 L 4.09375 41 C 4.894531 37 8.414063 35.613281 11.8125 34.3125 C 14.511719 33.210938 17.105469 32.207031 17.90625 29.90625 L 18 29.6875 L 18 24.6875 L 17.5 24.40625 C 17.101563 24.105469 16.105469 22.210938 15.90625 20.3125 L 15.8125 19.5 L 15 19.40625 C 14.898438 19.40625 14.386719 19 14.1875 17.5 C 14.085938 16.699219 14.5 16.40625 14.5 16.40625 L 15.09375 16 L 14.90625 15.3125 C 13.707031 10.613281 13.898438 7.007813 15.5 4.90625 C 16.699219 3.304688 18.90625 2.414063 21.90625 2.3125 C 23.804688 2.3125 25.195313 2.792969 25.59375 3.59375 L 25.8125 4 L 26.3125 4.09375 C 27.613281 4.292969 28.585938 4.914063 29.1875 5.8125 C 30.6875 8.3125 29.792969 12.792969 29.09375 15.09375 L 28.90625 16 L 29.5 16.40625 C 29.5 16.40625 29.914063 16.699219 29.8125 17.5 C 29.613281 19.101563 29.101563 19.40625 29 19.40625 L 28.1875 19.5 L 28.09375 20.3125 C 27.894531 22.210938 26.898438 24.207031 26.5 24.40625 L 26 24.6875 L 26 29.6875 L 26.09375 29.90625 C 26.992188 32.207031 29.488281 33.210938 32.1875 34.3125 C 34.988281 35.414063 37.914063 36.585938 39.3125 39.1875 L 39.8125 39.6875 L 41 38.1875 C 39.300781 34.988281 35.898438 33.601563 33 32.5 C 30.699219 31.601563 28.695313 30.804688 28.09375 29.40625 L 28.09375 25.8125 C 28.992188 24.914063 29.792969 22.886719 30.09375 21.1875 C 30.792969 20.789063 31.707031 19.886719 31.90625 17.6875 C 32.007813 16.585938 31.710938 15.789063 31.3125 15.1875 C 31.914063 13.1875 33.101563 8.113281 31 4.8125 C 30.101563 3.414063 28.792969 2.488281 27.09375 2.1875 C 26.195313 0.988281 24.304688 0.40625 21.90625 0.40625 Z M 48.4375 31.90625 L 47.8125 32.6875 L 40.0625 42.5625 L 34.65625 37.84375 L 33.90625 37.1875 L 32.59375 38.6875 L 33.34375 39.34375 L 39.53125 44.75 L 40.34375 45.4375 L 41 44.625 L 49.375 33.90625 L 50 33.125 Z"/></svg>