<svg fill="#000000" xmlns="http://www.w3.org/2000/svg"  viewBox="0 0 50 50" width="50px" height="50px"><path d="M 24.875 4 C 20.269531 4.085938 17.328125 5.980469 16.0625 8.875 C 14.851563 11.644531 15.117188 15.101563 16 18.71875 C 15.539063 19.273438 15.148438 19.996094 15.28125 21.09375 C 15.425781 22.304688 15.773438 23.171875 16.25 23.78125 C 16.496094 24.097656 16.824219 24.121094 17.125 24.28125 C 17.296875 25.324219 17.625 26.347656 18.0625 27.21875 C 18.308594 27.714844 18.566406 28.160156 18.84375 28.53125 C 18.960938 28.691406 19.125 28.804688 19.25 28.9375 C 19.230469 30.089844 19.125 31.097656 19 32.4375 C 18.683594 33.203125 17.9375 33.832031 16.71875 34.4375 C 15.460938 35.0625 13.8125 35.605469 12.15625 36.3125 C 10.5 37.019531 8.820313 37.894531 7.46875 39.25 C 6.117188 40.605469 5.148438 42.480469 5 44.9375 L 4.9375 46 L 30 46 L 30 50 L 36 50 L 36 40 C 36 37.78125 37.78125 36 40 36 C 42.21875 36 44 37.78125 44 40 L 44 50 L 50 50 L 50 40 C 50 34.269531 45.144531 29.65625 39.34375 30.03125 C 36.417969 30.222656 33.90625 31.699219 32.21875 33.875 C 31.441406 33.3125 31.179688 32.929688 31 32.46875 C 30.878906 31.113281 30.824219 30.097656 30.8125 28.90625 C 30.925781 28.777344 31.078125 28.679688 31.1875 28.53125 C 31.457031 28.160156 31.726563 27.714844 31.96875 27.21875 C 32.390625 26.347656 32.707031 25.316406 32.875 24.28125 C 33.175781 24.121094 33.503906 24.097656 33.75 23.78125 C 34.226563 23.171875 34.574219 22.304688 34.71875 21.09375 C 34.847656 20.019531 34.476563 19.304688 34.03125 18.75 C 34.511719 17.1875 35.109375 14.667969 34.90625 12.0625 C 34.796875 10.644531 34.445313 9.207031 33.59375 8.03125 C 32.816406 6.953125 31.5625 6.199219 29.96875 5.875 C 28.929688 4.527344 27.058594 4 24.90625 4 Z M 24.90625 6 C 24.917969 6 24.925781 6 24.9375 6 C 26.917969 6.007813 28.203125 6.582031 28.5625 7.21875 L 28.78125 7.65625 L 29.28125 7.71875 C 30.648438 7.910156 31.417969 8.457031 31.96875 9.21875 C 32.519531 9.980469 32.84375 11.039063 32.9375 12.21875 C 33.121094 14.578125 32.429688 17.335938 32 18.625 L 31.75 19.375 L 32.4375 19.8125 C 32.386719 19.78125 32.816406 20.03125 32.71875 20.84375 C 32.601563 21.808594 32.363281 22.339844 32.1875 22.5625 C 32.011719 22.785156 31.910156 22.75 31.90625 22.75 L 31.09375 22.8125 L 31 23.65625 C 30.910156 24.503906 30.554688 25.527344 30.15625 26.34375 C 29.957031 26.75 29.773438 27.097656 29.59375 27.34375 C 29.414063 27.589844 29.214844 27.738281 29.3125 27.6875 L 28.78125 27.96875 L 28.78125 28.5625 C 28.78125 30.050781 28.855469 31.21875 29 32.8125 L 29.0625 33.0625 C 29.363281 33.875 29.976563 34.710938 31.15625 35.5625 C 30.421875 37.003906 30 38.617188 30 40.3125 L 30 44 L 7.25 44 C 7.53125 42.617188 8.039063 41.496094 8.875 40.65625 C 9.929688 39.597656 11.378906 38.820313 12.9375 38.15625 C 14.496094 37.492188 16.148438 36.933594 17.59375 36.21875 C 19.039063 35.503906 20.371094 34.582031 20.9375 33.0625 L 21 32.8125 C 21.140625 31.242188 21.28125 30.078125 21.28125 28.5625 L 21.28125 27.96875 L 20.75 27.6875 C 20.84375 27.738281 20.652344 27.59375 20.46875 27.34375 C 20.285156 27.09375 20.046875 26.75 19.84375 26.34375 C 19.4375 25.527344 19.089844 24.496094 19 23.65625 L 18.90625 22.8125 L 18.09375 22.75 C 18.089844 22.75 17.988281 22.785156 17.8125 22.5625 C 17.636719 22.339844 17.398438 21.808594 17.28125 20.84375 C 17.183594 20.03125 17.609375 19.78125 17.5625 19.8125 L 18.1875 19.40625 L 18 18.6875 C 17.074219 15.121094 16.945313 11.886719 17.90625 9.6875 C 18.867188 7.496094 20.816406 6.082031 24.90625 6 Z M 39.46875 32.03125 C 44.152344 31.726563 48 35.394531 48 40 L 48 47 L 46 47 L 46 40 C 46 36.699219 43.300781 34 40 34 C 36.699219 34 34 36.699219 34 40 L 34 47 L 32 47 L 32 40.3125 C 32 36.023438 35.230469 32.304688 39.46875 32.03125 Z M 40 39 C 40 39.144531 38 44 38 44 L 40 44 L 40 48 L 42 43 L 40 43 Z"/></svg>