<svg fill="#000000" xmlns="http://www.w3.org/2000/svg"  viewBox="0 0 50 50" width="50px" height="50px"><path d="M 18 7 C 8.0625 7 0 15.0625 0 25 C 0 34.9375 8.0625 43 18 43 C 19.222656 43 20.410156 42.855469 21.5625 42.625 C 22.613281 42.8125 23.78125 43 25 43 C 26.222656 43 27.410156 42.855469 28.5625 42.625 C 29.613281 42.8125 30.78125 43 32 43 C 41.9375 43 50 34.9375 50 25 C 50 15.0625 41.9375 7 32 7 C 30.847656 7 29.691406 7.101563 28.5625 7.375 C 27.410156 7.144531 26.222656 7 25 7 C 23.847656 7 22.691406 7.101563 21.5625 7.375 C 20.410156 7.144531 19.222656 7 18 7 Z M 18 9 C 19.042969 9 20.046875 9.09375 21.03125 9.28125 C 21.203125 9.378906 21.398438 9.421875 21.59375 9.40625 C 28.707031 11.035156 34 17.378906 34 25 C 34 32.640625 28.675781 38.988281 21.53125 40.59375 C 21.367188 40.597656 21.207031 40.640625 21.0625 40.71875 C 20.066406 40.910156 19.054688 41 18 41 C 9.140625 41 2 33.859375 2 25 C 2 16.140625 9.140625 9 18 9 Z M 26.375 9.09375 C 26.933594 9.140625 27.488281 9.175781 28.03125 9.28125 C 28.203125 9.378906 28.398438 9.421875 28.59375 9.40625 C 35.707031 11.035156 41 17.378906 41 25 C 41 32.640625 35.675781 38.988281 28.53125 40.59375 C 28.367188 40.597656 28.207031 40.640625 28.0625 40.71875 C 27.511719 40.824219 26.945313 40.859375 26.375 40.90625 C 32.097656 37.890625 36 31.917969 36 25 C 36 18.082031 32.097656 12.109375 26.375 9.09375 Z M 33.375 9.09375 C 41.582031 9.796875 48 16.609375 48 25 C 48 33.390625 41.582031 40.203125 33.375 40.90625 C 39.097656 37.890625 43 31.917969 43 25 C 43 18.082031 39.097656 12.109375 33.375 9.09375 Z M 17 14 L 17 16.1875 C 15.398438 16.386719 12.5 17.789063 12.5 21.1875 C 12.5 27.585938 21.8125 24.292969 21.8125 29.09375 C 21.8125 30.695313 21.101563 32.1875 18 32.1875 C 14.898438 32.1875 14 29.800781 14 28.5 L 12 28.5 C 12.300781 32.800781 15.300781 33.792969 17 34.09375 L 17 36 L 19 36 L 19 34.09375 C 20.5 33.992188 24 32.90625 24 28.90625 C 24 25.605469 21.289063 24.695313 18.6875 24.09375 C 16.585938 23.59375 14.6875 23.101563 14.6875 21 C 14.6875 20.101563 15.09375 18.09375 18.09375 18.09375 C 20.195313 18.09375 21.199219 19.398438 21.5 21 L 23.5 21 C 22.898438 18.800781 21.898438 16.8125 19 16.3125 L 19 14 Z"/></svg>