<svg fill="#000000" xmlns="http://www.w3.org/2000/svg"  viewBox="0 0 50 50" width="50px" height="50px"><path d="M 2.8125 8 C 2.335938 8.089844 1.992188 8.511719 2 9 L 2 39 C 2 39.550781 2.449219 40 3 40 L 47 40 C 47.550781 40 48 39.550781 48 39 L 48 9 C 48 8.449219 47.550781 8 47 8 L 3 8 C 2.96875 8 2.9375 8 2.90625 8 C 2.875 8 2.84375 8 2.8125 8 Z M 4 10 L 46 10 L 46 38 L 4 38 Z M 25 13 C 21.699219 13 19 15.699219 19 19 C 19 21.089844 20.089844 22.925781 21.71875 24 C 18.542969 24.144531 16 26.789063 16 30 L 18 30 C 18 27.78125 19.78125 26 22 26 L 28 26 C 30.21875 26 32 27.78125 32 30 L 34 30 C 34 26.789063 31.457031 24.144531 28.28125 24 C 29.910156 22.925781 31 21.089844 31 19 C 31 15.699219 28.300781 13 25 13 Z M 25 15 C 27.222656 15 29 16.777344 29 19 C 29 21.222656 27.222656 23 25 23 C 22.777344 23 21 21.222656 21 19 C 21 16.777344 22.777344 15 25 15 Z M 10 32 L 10 36 L 16 36 L 16 32 Z M 18 32 L 18 36 L 24 36 L 24 32 Z M 26 32 L 26 36 L 32 36 L 32 32 Z M 34 32 L 34 36 L 40 36 L 40 32 Z M 14.71875 42 C 14.167969 42.078125 13.78125 42.589844 13.859375 43.140625 C 13.9375 43.691406 14.449219 44.078125 15 44 L 35 44 C 35.359375 44.003906 35.695313 43.816406 35.878906 43.503906 C 36.058594 43.191406 36.058594 42.808594 35.878906 42.496094 C 35.695313 42.183594 35.359375 41.996094 35 42 L 15 42 C 14.96875 42 14.9375 42 14.90625 42 C 14.875 42 14.84375 42 14.8125 42 C 14.78125 42 14.75 42 14.71875 42 Z"/></svg>