<svg fill="#000000" xmlns="http://www.w3.org/2000/svg"  viewBox="0 0 50 50" width="50px" height="50px"><path d="M 7 7 C 5.3550302 7 4 8.3550302 4 10 L 4 40 C 4 41.64497 5.3550302 43 7 43 L 43 43 C 44.64497 43 46 41.64497 46 40 L 46 10 C 46 8.3550302 44.64497 7 43 7 L 7 7 z M 7 9 L 43 9 C 43.56503 9 44 9.4349698 44 10 L 44 13 L 6 13 L 6 10 C 6 9.4349698 6.4349698 9 7 9 z M 8 10 A 1 1 0 0 0 7 11 A 1 1 0 0 0 8 12 A 1 1 0 0 0 9 11 A 1 1 0 0 0 8 10 z M 11 10 A 1 1 0 0 0 10 11 A 1 1 0 0 0 11 12 A 1 1 0 0 0 12 11 A 1 1 0 0 0 11 10 z M 14 10 A 1 1 0 0 0 13 11 A 1 1 0 0 0 14 12 A 1 1 0 0 0 15 11 A 1 1 0 0 0 14 10 z M 6 15 L 44 15 L 44 40 C 44 40.56503 43.56503 41 43 41 L 7 41 C 6.4349698 41 6 40.56503 6 40 L 6 15 z M 36 21 A 2 2 0 0 0 34 23 A 2 2 0 0 0 34.136719 23.726562 L 28.298828 31.025391 A 2 2 0 0 0 28 31 A 2 2 0 0 0 27.597656 31.042969 L 21.896484 24.628906 A 2 2 0 0 0 22 24 A 2 2 0 0 0 20 22 A 2 2 0 0 0 18 24 A 2 2 0 0 0 18.070312 24.515625 L 14.517578 28.068359 A 2 2 0 0 0 14 28 A 2 2 0 0 0 12 30 A 2 2 0 0 0 14 32 A 2 2 0 0 0 16 30 A 2 2 0 0 0 15.929688 29.484375 L 19.482422 25.931641 A 2 2 0 0 0 20 26 A 2 2 0 0 0 20.404297 25.958984 L 26.103516 32.371094 A 2 2 0 0 0 26 33 A 2 2 0 0 0 28 35 A 2 2 0 0 0 30 33 A 2 2 0 0 0 29.863281 32.273438 L 35.701172 24.974609 A 2 2 0 0 0 36 25 A 2 2 0 0 0 38 23 A 2 2 0 0 0 36 21 z"/></svg>