<?xml version="1.0" standalone="no"?>
<!DOCTYPE svg PUBLIC "-//W3C//DTD SVG 20010904//EN"
 "http://www.w3.org/TR/2001/REC-SVG-20010904/DTD/svg10.dtd">
<svg version="1.0" xmlns="http://www.w3.org/2000/svg"
 width="700.000000pt" height="700.000000pt" viewBox="0 0 700.000000 700.000000"
 preserveAspectRatio="xMidYMid meet">
<metadata>
Created by potrace 1.14, written by Peter Selinger 2001-2017
</metadata>
<g transform="translate(0.000000,700.000000) scale(0.100000,-0.100000)"
fill="#000000" stroke="none">
<path d="M2195 6433 c-53 -10 -175 -59 -214 -86 -152 -104 -256 -312 -288
-577 -10 -83 -10 -451 0 -552 9 -94 25 -224 32 -258 3 -13 7 -42 11 -65 3 -22
14 -85 25 -140 10 -54 15 -102 11 -105 -4 -4 -54 -17 -112 -29 -135 -29 -122
-26 -220 -51 -101 -26 -359 -111 -427 -141 -434 -191 -657 -394 -727 -659 -14
-54 -15 -186 -2 -243 53 -230 323 -500 663 -663 62 -30 132 -57 156 -60 113
-16 191 96 141 202 -14 29 -36 43 -157 103 -281 137 -467 306 -522 472 -78
232 251 510 800 676 92 27 294 79 344 88 19 3 37 7 40 9 3 2 27 7 52 10 l45 6
13 -52 c31 -123 107 -375 163 -541 l60 -178 -23 -37 c-92 -154 -289 -567 -380
-795 -72 -179 -169 -472 -194 -582 -17 -74 -64 -318 -69 -355 -12 -84 -15
-375 -5 -445 47 -337 219 -571 486 -663 252 -87 523 -22 878 213 139 92 157
111 162 172 5 60 -19 109 -68 135 -61 32 -97 25 -200 -43 -281 -185 -471 -253
-634 -229 -54 8 -158 70 -208 123 -56 59 -101 149 -123 242 -23 98 -29 285
-13 410 8 66 11 83 25 171 31 194 146 559 267 844 71 169 88 206 162 357 l71
143 44 -103 c50 -117 222 -470 275 -567 34 -61 72 -129 117 -208 41 -73 186
-304 257 -407 312 -459 670 -850 1006 -1098 113 -84 106 -79 136 -97 187 -111
298 -160 439 -195 131 -32 294 -30 392 6 287 103 451 470 451 1009 0 115 -9
293 -17 337 -2 10 -7 45 -10 78 -12 104 -38 252 -72 409 -68 315 -188 696
-329 1046 -106 263 -168 396 -197 420 -56 46 -148 33 -197 -27 -43 -52 -38
-99 28 -248 89 -199 101 -228 171 -415 92 -249 153 -442 214 -685 54 -214 82
-363 111 -600 17 -131 22 -382 11 -505 -24 -282 -129 -508 -255 -552 -64 -23
-205 -15 -296 16 -230 80 -478 253 -746 518 -63 62 -143 147 -179 188 -36 41
-73 84 -83 95 -10 11 -28 33 -40 48 -12 15 -30 38 -41 50 -97 115 -333 454
-453 652 -134 221 -325 583 -392 745 -13 30 -32 75 -44 100 -11 25 -44 105
-73 178 l-54 133 72 122 c138 235 325 519 479 730 l34 47 285 -5 c157 -3 308
-7 335 -9 28 -3 93 -8 145 -11 52 -4 113 -9 135 -11 38 -3 62 -6 180 -19 28
-3 70 -8 95 -11 25 -2 56 -6 70 -9 14 -2 48 -7 75 -11 181 -21 496 -83 735
-145 545 -141 961 -328 1208 -544 274 -239 265 -486 -27 -709 -81 -62 -179
-117 -313 -176 -136 -60 -163 -89 -161 -168 3 -75 61 -132 136 -132 63 0 300
110 443 206 354 238 489 575 350 874 -57 121 -91 167 -207 281 -310 304 -959
576 -1726 725 -85 16 -361 62 -408 68 -22 3 -71 10 -110 15 -38 5 -101 13
-140 16 -38 4 -83 8 -100 11 -126 15 -429 34 -638 38 -70 2 -129 5 -131 7 -4
4 50 70 172 209 73 83 365 377 454 457 31 28 94 81 140 117 45 37 92 75 103
84 69 58 317 212 428 266 248 120 398 150 541 105 56 -17 77 -30 130 -82 184
-182 198 -475 35 -786 -35 -68 -39 -112 -15 -158 43 -84 154 -103 219 -37 48
47 123 226 159 373 22 94 32 274 18 356 -17 100 -21 117 -45 180 -52 140 -156
277 -267 353 -54 37 -165 81 -232 92 -75 13 -261 5 -336 -14 -190 -49 -386
-139 -590 -273 -98 -64 -264 -184 -280 -202 -3 -3 -27 -24 -55 -46 -163 -130
-459 -419 -642 -629 -135 -155 -133 -152 -230 -272 l-82 -102 -93 -2 c-51 -1
-113 -3 -138 -5 -25 -2 -83 -7 -130 -10 -83 -6 -111 -8 -215 -20 -88 -10 -139
-16 -166 -21 -26 -5 -27 -3 -42 68 -9 40 -18 87 -20 103 -3 17 -10 57 -15 90
-15 81 -21 128 -27 190 -3 28 -8 63 -11 76 -13 58 -12 447 2 534 58 380 224
484 538 337 113 -53 242 -138 461 -306 47 -36 68 -46 98 -46 79 0 136 49 144
125 9 72 -15 102 -187 236 -249 193 -432 291 -605 324 -65 12 -184 16 -230 8z
m415 -1979 c0 -1 -21 -34 -47 -71 -52 -73 -194 -293 -256 -395 l-39 -62 -28
86 c-42 131 -114 397 -109 402 3 3 29 8 59 11 30 3 71 8 90 10 40 5 102 11
215 20 44 4 82 9 83 10 5 4 32 -5 32 -11z"/>
<path d="M3375 3900 c-119 -38 -221 -133 -267 -250 -41 -104 -31 -248 25 -356
21 -40 94 -116 142 -147 141 -92 334 -85 471 16 115 84 173 205 170 348 -5
176 -106 318 -270 382 -73 28 -195 31 -271 7z"/>
</g>
</svg>
